<?xml version="1.0" encoding="UTF-8"?>
<svg xmlns="http://www.w3.org/2000/svg" xmlns:xlink="http://www.w3.org/1999/xlink" width="130pt" height="71pt" viewBox="0 0 130 71" version="1.1">
<defs>
<filter id="alpha" filterUnits="objectBoundingBox" x="0%" y="0%" width="100%" height="100%">
  <feColorMatrix type="matrix" in="SourceGraphic" values="0 0 0 0 1 0 0 0 0 1 0 0 0 0 1 0 0 0 1 0"/>
</filter>
<mask id="mask0">
  <g filter="url(#alpha)">
<rect x="0" y="0" width="130" height="71" style="fill:rgb(0%,0%,0%);fill-opacity:0.101961;stroke:none;"/>
  </g>
</mask>
<clipPath id="clip1">
  <rect x="0" y="0" width="130" height="71"/>
</clipPath>
<g id="surface5" clip-path="url(#clip1)">
<path style=" stroke:none;fill-rule:nonzero;fill:rgb(72.941176%,38.823529%,100%);fill-opacity:1;" d="M 126.566406 65.90625 C 126.445312 65.988281 126.320312 66.070312 126.191406 66.148438 C 125.726562 66.4375 125.238281 66.699219 124.734375 66.929688 C 122.082031 68.160156 118.8125 68.757812 115.632812 69.167969 C 108.492188 70.082031 101.203125 70.257812 93.945312 70.433594 C 74.335938 70.90625 54.671875 71.378906 35.113281 70.289062 C 27.386719 69.859375 19.484375 69.132812 12.480469 66.929688 C 11.476562 66.613281 10.492188 66.265625 9.527344 65.882812 C 7.578125 65.113281 5.703125 64.175781 4.144531 63.054688 C 2.675781 62.007812 1.492188 60.796875 0.78125 59.425781 C -0.699219 56.566406 0.0859375 53.355469 1.773438 50.554688 C 2.480469 49.417969 3.273438 48.332031 4.148438 47.300781 C 5.449219 45.722656 6.886719 44.195312 8.203125 42.617188 C 12.871094 37.007812 15.917969 29.921875 11.609375 24.175781 C 10.363281 22.523438 8.578125 21.074219 7.566406 19.351562 C 6.277344 17.144531 6.378906 14.695312 6.789062 12.3125 C 6.839844 12.011719 6.902344 11.714844 6.957031 11.417969 C 7.660156 7.890625 8.972656 4.089844 13.03125 1.890625 C 17.25 -0.398438 23.234375 -0.28125 28.46875 0.535156 C 36.609375 1.808594 44.117188 4.46875 51.699219 6.867188 C 59.28125 9.269531 67.222656 11.460938 75.558594 11.699219 C 82.921875 11.910156 91.511719 10.347656 96.394531 6.292969 C 101.144531 2.359375 110.0625 2.058594 116.496094 4.4375 C 120.902344 6.070312 124.199219 9.007812 125.589844 12.3125 C 125.867188 12.976562 126.070312 13.664062 126.191406 14.367188 C 126.304688 15.003906 126.34375 15.65625 126.304688 16.300781 C 126.285156 16.617188 126.25 16.9375 126.191406 17.246094 C 125.117188 23.773438 117.386719 28.917969 112.683594 34.746094 C 110.386719 37.59375 108.765625 41.015625 110.34375 44.085938 C 112.753906 48.761719 121.132812 50.425781 126.191406 53.910156 C 127.136719 54.535156 127.976562 55.289062 128.679688 56.148438 C 131.128906 59.25 130.222656 63.433594 126.566406 65.90625 Z M 126.566406 65.90625 "/>
</g>
<mask id="mask1">
  <g filter="url(#alpha)">
<rect x="0" y="0" width="130" height="71" style="fill:rgb(0%,0%,0%);fill-opacity:0.101961;stroke:none;"/>
  </g>
</mask>
<clipPath id="clip2">
  <rect x="0" y="0" width="130" height="71"/>
</clipPath>
<g id="surface8" clip-path="url(#clip2)">
<path style=" stroke:none;fill-rule:nonzero;fill:rgb(72.941176%,38.823529%,100%);fill-opacity:1;" d="M 91.261719 68.34375 C 91.261719 67.8125 77.617188 67.378906 60.78125 67.378906 C 43.949219 67.378906 30.300781 67.8125 30.300781 68.34375 C 30.300781 68.875 43.949219 69.304688 60.78125 69.304688 C 77.617188 69.304688 91.261719 68.875 91.261719 68.34375 Z M 91.261719 68.34375 "/>
</g>
<mask id="mask2">
  <g filter="url(#alpha)">
<rect x="0" y="0" width="130" height="71" style="fill:rgb(0%,0%,0%);fill-opacity:0.25098;stroke:none;"/>
  </g>
</mask>
<clipPath id="clip3">
  <rect x="0" y="0" width="130" height="71"/>
</clipPath>
<g id="surface11" clip-path="url(#clip3)">
<path style=" stroke:none;fill-rule:nonzero;fill:rgb(0%,0%,0%);fill-opacity:1;" d="M 96.386719 34.78125 C 95.921875 35.855469 96.667969 39.746094 96.667969 39.746094 C 96.667969 39.746094 100.101562 37.414062 100.566406 36.339844 C 101.03125 35.269531 100.46875 34.050781 99.316406 33.617188 C 98.160156 33.1875 96.847656 33.707031 96.382812 34.78125 Z M 96.386719 34.78125 "/>
</g>
<mask id="mask3">
  <g filter="url(#alpha)">
<rect x="0" y="0" width="130" height="71" style="fill:rgb(0%,0%,0%);fill-opacity:0.25098;stroke:none;"/>
  </g>
</mask>
<clipPath id="clip4">
  <rect x="0" y="0" width="130" height="71"/>
</clipPath>
<g id="surface14" clip-path="url(#clip4)">
<path style=" stroke:none;fill-rule:nonzero;fill:rgb(0%,0%,0%);fill-opacity:1;" d="M 90.363281 39.433594 C 90.601562 40.566406 93.503906 43.457031 93.503906 43.457031 C 93.503906 43.457031 95.023438 39.765625 94.785156 38.632812 C 94.535156 37.507812 93.359375 36.78125 92.148438 37 C 90.9375 37.222656 90.140625 38.304688 90.363281 39.433594 Z M 90.363281 39.433594 "/>
</g>
<mask id="mask4">
  <g filter="url(#alpha)">
<rect x="0" y="0" width="130" height="71" style="fill:rgb(0%,0%,0%);fill-opacity:0.25098;stroke:none;"/>
  </g>
</mask>
<clipPath id="clip5">
  <rect x="0" y="0" width="130" height="71"/>
</clipPath>
<g id="surface17" clip-path="url(#clip5)">
<path style=" stroke:none;fill-rule:nonzero;fill:rgb(0%,0%,0%);fill-opacity:1;" d="M 86.125 49.640625 C 86.945312 50.507812 91.019531 51.636719 91.019531 51.636719 C 91.019531 51.636719 90.328125 47.738281 89.503906 46.871094 C 88.683594 46.003906 87.261719 45.917969 86.328125 46.683594 C 85.394531 47.445312 85.300781 48.769531 86.125 49.636719 Z M 86.125 49.640625 "/>
</g>
<mask id="mask5">
  <g filter="url(#alpha)">
<rect x="0" y="0" width="130" height="71" style="fill:rgb(0%,0%,0%);fill-opacity:0.25098;stroke:none;"/>
  </g>
</mask>
<clipPath id="clip6">
  <rect x="0" y="0" width="130" height="71"/>
</clipPath>
<g id="surface20" clip-path="url(#clip6)">
<path style=" stroke:none;fill-rule:nonzero;fill:rgb(0%,0%,0%);fill-opacity:1;" d="M 84.789062 58.035156 C 85.441406 59.019531 89.25 60.777344 89.25 60.777344 C 89.25 60.777344 89.277344 56.824219 88.625 55.839844 C 88.207031 55.199219 87.449219 54.8125 86.640625 54.832031 C 85.832031 54.851562 85.09375 55.273438 84.714844 55.933594 C 84.332031 56.597656 84.359375 57.398438 84.789062 58.035156 Z M 84.789062 58.035156 "/>
</g>
<mask id="mask6">
  <g filter="url(#alpha)">
<rect x="0" y="0" width="130" height="71" style="fill:rgb(0%,0%,0%);fill-opacity:0.25098;stroke:none;"/>
  </g>
</mask>
<clipPath id="clip7">
  <rect x="0" y="0" width="130" height="71"/>
</clipPath>
<g id="surface23" clip-path="url(#clip7)">
<path style=" stroke:none;fill-rule:nonzero;fill:rgb(0%,0%,0%);fill-opacity:1;" d="M 97.808594 45.300781 C 96.65625 45.742188 92.464844 45.074219 92.464844 45.074219 C 92.464844 45.074219 94.949219 41.867188 96.097656 41.429688 C 97.246094 41.011719 98.539062 41.527344 99.007812 42.585938 C 99.472656 43.640625 98.9375 44.851562 97.808594 45.300781 Z M 97.808594 45.300781 "/>
</g>
<mask id="mask7">
  <g filter="url(#alpha)">
<rect x="0" y="0" width="130" height="71" style="fill:rgb(0%,0%,0%);fill-opacity:0.25098;stroke:none;"/>
  </g>
</mask>
<clipPath id="clip8">
  <rect x="0" y="0" width="130" height="71"/>
</clipPath>
<g id="surface26" clip-path="url(#clip8)">
<path style=" stroke:none;fill-rule:nonzero;fill:rgb(0%,0%,0%);fill-opacity:1;" d="M 96.113281 55.101562 C 94.867188 55.199219 91.085938 53.398438 91.085938 53.398438 C 91.085938 53.398438 94.488281 51.03125 95.730469 50.929688 C 96.539062 50.855469 97.328125 51.1875 97.796875 51.808594 C 98.269531 52.425781 98.34375 53.230469 97.992188 53.914062 C 97.644531 54.59375 96.921875 55.050781 96.113281 55.101562 Z M 96.113281 55.101562 "/>
</g>
<mask id="mask8">
  <g filter="url(#alpha)">
<rect x="0" y="0" width="130" height="71" style="fill:rgb(0%,0%,0%);fill-opacity:0.25098;stroke:none;"/>
  </g>
</mask>
<clipPath id="clip9">
  <rect x="0" y="0" width="130" height="71"/>
</clipPath>
<g id="surface29" clip-path="url(#clip9)">
<path style=" stroke:none;fill-rule:nonzero;fill:rgb(0%,0%,0%);fill-opacity:1;" d="M 93.050781 64.417969 C 91.847656 64.707031 87.789062 63.527344 87.789062 63.527344 C 87.789062 63.527344 90.710938 60.65625 91.914062 60.367188 C 93.105469 60.109375 94.296875 60.78125 94.601562 61.878906 C 94.910156 62.976562 94.21875 64.101562 93.046875 64.417969 Z M 93.050781 64.417969 "/>
</g>
<mask id="mask9">
  <g filter="url(#alpha)">
<rect x="0" y="0" width="130" height="71" style="fill:rgb(0%,0%,0%);fill-opacity:0.101961;stroke:none;"/>
  </g>
</mask>
<clipPath id="clip10">
  <rect x="0" y="0" width="130" height="71"/>
</clipPath>
<g id="surface32" clip-path="url(#clip10)">
<path style=" stroke:none;fill-rule:nonzero;fill:rgb(0%,0%,0%);fill-opacity:1;" d="M 68.738281 18.0625 L 82.328125 18.0625 L 82.328125 19.152344 L 68.738281 19.152344 Z M 68.738281 18.0625 "/>
</g>
<mask id="mask10">
  <g filter="url(#alpha)">
<rect x="0" y="0" width="130" height="71" style="fill:rgb(0%,0%,0%);fill-opacity:0.101961;stroke:none;"/>
  </g>
</mask>
<clipPath id="clip11">
  <rect x="0" y="0" width="130" height="71"/>
</clipPath>
<g id="surface35" clip-path="url(#clip11)">
<path style=" stroke:none;fill-rule:nonzero;fill:rgb(0%,0%,0%);fill-opacity:1;" d="M 87.144531 21.554688 L 87.449219 21.554688 L 87.449219 28.304688 L 87.144531 28.304688 Z M 87.144531 21.554688 "/>
</g>
<mask id="mask11">
  <g filter="url(#alpha)">
<rect x="0" y="0" width="130" height="71" style="fill:rgb(0%,0%,0%);fill-opacity:0.101961;stroke:none;"/>
  </g>
</mask>
<clipPath id="clip12">
  <rect x="0" y="0" width="130" height="71"/>
</clipPath>
<g id="surface38" clip-path="url(#clip12)">
<path style=" stroke:none;fill-rule:nonzero;fill:rgb(0%,0%,0%);fill-opacity:1;" d="M 63.566406 22.644531 L 65.636719 22.644531 L 65.636719 26.140625 L 63.566406 26.140625 Z M 63.566406 22.644531 "/>
</g>
<mask id="mask12">
  <g filter="url(#alpha)">
<rect x="0" y="0" width="130" height="71" style="fill:rgb(0%,0%,0%);fill-opacity:0.101961;stroke:none;"/>
  </g>
</mask>
<clipPath id="clip13">
  <rect x="0" y="0" width="130" height="71"/>
</clipPath>
<g id="surface41" clip-path="url(#clip13)">
<path style=" stroke:none;fill-rule:nonzero;fill:rgb(0%,0%,0%);fill-opacity:1;" d="M 80.910156 31.863281 L 70.925781 31.863281 L 71.085938 30.6875 L 80.613281 29.699219 Z M 80.910156 31.863281 "/>
</g>
<mask id="mask13">
  <g filter="url(#alpha)">
<rect x="0" y="0" width="130" height="71" style="fill:rgb(0%,0%,0%);fill-opacity:0.101961;stroke:none;"/>
  </g>
</mask>
<clipPath id="clip14">
  <rect x="0" y="0" width="130" height="71"/>
</clipPath>
<g id="surface44" clip-path="url(#clip14)">
<path style=" stroke:none;fill-rule:nonzero;fill:rgb(0%,0%,0%);fill-opacity:1;" d="M 59.570312 22.644531 L 60.652344 22.644531 L 60.652344 26.140625 L 59.570312 26.140625 Z M 59.570312 22.644531 "/>
</g>
<mask id="mask14">
  <g filter="url(#alpha)">
<rect x="0" y="0" width="130" height="71" style="fill:rgb(0%,0%,0%);fill-opacity:0.501961;stroke:none;"/>
  </g>
</mask>
<clipPath id="clip15">
  <rect x="0" y="0" width="130" height="71"/>
</clipPath>
<g id="surface47" clip-path="url(#clip15)">
<path style=" stroke:none;fill-rule:nonzero;fill:rgb(72.941176%,38.823529%,100%);fill-opacity:1;" d="M 83.625 20.238281 C 83.625 20.570312 83.335938 20.839844 82.976562 20.839844 C 82.617188 20.839844 82.328125 20.570312 82.328125 20.238281 C 82.328125 19.902344 82.617188 19.632812 82.976562 19.632812 C 83.335938 19.632812 83.625 19.902344 83.625 20.238281 Z M 83.625 20.238281 "/>
</g>
<linearGradient id="linear0" gradientUnits="userSpaceOnUse" x1="501.81" y1="766.64" x2="501.81" y2="122.51" gradientTransform="matrix(0.113043,0,0,0.10503,-2.801217,-11.78642)">
<stop offset="0" style="stop-color:rgb(50.196078%,50.196078%,50.196078%);stop-opacity:0.25098;"/>
<stop offset="0.54" style="stop-color:rgb(50.196078%,50.196078%,50.196078%);stop-opacity:0.121569;"/>
<stop offset="1" style="stop-color:rgb(50.196078%,50.196078%,50.196078%);stop-opacity:0.101961;"/>
</linearGradient>
<mask id="mask15">
  <g filter="url(#alpha)">
<rect x="0" y="0" width="130" height="71" style="fill:rgb(0%,0%,0%);fill-opacity:0.101961;stroke:none;"/>
  </g>
</mask>
<clipPath id="clip16">
  <rect x="0" y="0" width="130" height="71"/>
</clipPath>
<g id="surface50" clip-path="url(#clip16)">
<path style=" stroke:none;fill-rule:nonzero;fill:rgb(0%,0%,0%);fill-opacity:1;" d="M 47.234375 65.019531 L 47.234375 65.914062 L 43.714844 66.640625 C 43.726562 66.390625 43.753906 66.144531 43.800781 65.898438 Z M 47.234375 65.019531 "/>
</g>
<mask id="mask16">
  <g filter="url(#alpha)">
<rect x="0" y="0" width="130" height="71" style="fill:rgb(0%,0%,0%);fill-opacity:0.101961;stroke:none;"/>
  </g>
</mask>
<clipPath id="clip17">
  <rect x="0" y="0" width="130" height="71"/>
</clipPath>
<g id="surface53" clip-path="url(#clip17)">
<path style=" stroke:none;fill-rule:nonzero;fill:rgb(0%,0%,0%);fill-opacity:1;" d="M 47.234375 67.878906 L 47.234375 67.90625 C 47.234375 67.90625 46.722656 68.785156 44.972656 68.824219 C 44.535156 68.851562 44.132812 68.613281 43.960938 68.242188 C 44.75 68.421875 46.023438 68.535156 47.234375 67.878906 Z M 47.234375 67.878906 "/>
</g>
<mask id="mask17">
  <g filter="url(#alpha)">
<rect x="0" y="0" width="130" height="71" style="fill:rgb(0%,0%,0%);fill-opacity:0.101961;stroke:none;"/>
  </g>
</mask>
<clipPath id="clip18">
  <rect x="0" y="0" width="130" height="71"/>
</clipPath>
<g id="surface56" clip-path="url(#clip18)">
<path style=" stroke:none;fill-rule:nonzero;fill:rgb(0%,0%,0%);fill-opacity:1;" d="M 55.785156 34.785156 L 54.101562 35.042969 L 51.90625 35.378906 L 52.058594 33.667969 L 52.75 25.996094 L 53.632812 25.648438 L 54.257812 25.40625 L 55.335938 24.980469 L 55.109375 27.046875 Z M 55.785156 34.785156 "/>
</g>
<mask id="mask18">
  <g filter="url(#alpha)">
<rect x="0" y="0" width="130" height="71" style="fill:rgb(0%,0%,0%);fill-opacity:0.101961;stroke:none;"/>
  </g>
</mask>
<clipPath id="clip19">
  <rect x="0" y="0" width="130" height="71"/>
</clipPath>
<g id="surface59" clip-path="url(#clip19)">
<path style=" stroke:none;fill-rule:nonzero;fill:rgb(0%,0%,0%);fill-opacity:1;" d="M 47.636719 58.046875 L 42.386719 63.28125 C 41.464844 61.609375 41.070312 58.261719 40.902344 55.429688 C 41.882812 54.675781 42.824219 54.023438 43.539062 53.710938 C 43.539062 53.710938 45.957031 52.085938 46.464844 51.304688 C 46.738281 52.859375 47.242188 55.691406 47.460938 56.371094 C 47.53125 56.59375 47.589844 57.21875 47.636719 58.046875 Z M 47.636719 58.046875 "/>
</g>
<mask id="mask19">
  <g filter="url(#alpha)">
<rect x="0" y="0" width="130" height="71" style="fill:rgb(0%,0%,0%);fill-opacity:0.101961;stroke:none;"/>
  </g>
</mask>
<clipPath id="clip20">
  <rect x="0" y="0" width="130" height="71"/>
</clipPath>
<g id="surface62" clip-path="url(#clip20)">
<path style=" stroke:none;fill-rule:nonzero;fill:rgb(0%,0%,0%);fill-opacity:1;" d="M 46.382812 45.613281 L 40.269531 44.757812 L 40.601562 43.941406 L 44.257812 43.941406 Z M 46.382812 45.613281 "/>
</g>
<mask id="mask20">
  <g filter="url(#alpha)">
<rect x="0" y="0" width="130" height="71" style="fill:rgb(0%,0%,0%);fill-opacity:0.101961;stroke:none;"/>
  </g>
</mask>
<clipPath id="clip21">
  <rect x="0" y="0" width="130" height="71"/>
</clipPath>
<g id="surface65" clip-path="url(#clip21)">
<path style=" stroke:none;fill-rule:nonzero;fill:rgb(0%,0%,0%);fill-opacity:1;" d="M 47.617188 57.652344 L 42.25 63 C 41.425781 61.257812 41.058594 58.109375 40.902344 55.433594 C 40.894531 55.296875 40.886719 55.164062 40.882812 55.03125 C 41.867188 54.265625 42.824219 53.609375 43.539062 53.289062 C 43.539062 53.289062 45.796875 51.773438 46.410156 50.96875 C 46.425781 51.074219 46.445312 51.1875 46.464844 51.308594 C 46.738281 52.859375 47.242188 55.695312 47.460938 56.371094 C 47.519531 56.554688 47.570312 57.023438 47.617188 57.652344 Z M 47.617188 57.652344 "/>
</g>
<mask id="mask21">
  <g filter="url(#alpha)">
<rect x="0" y="0" width="130" height="71" style="fill:rgb(0%,0%,0%);fill-opacity:0.101961;stroke:none;"/>
  </g>
</mask>
<clipPath id="clip22">
  <rect x="0" y="0" width="130" height="71"/>
</clipPath>
<g id="surface68" clip-path="url(#clip22)">
<path style=" stroke:none;fill-rule:nonzero;fill:rgb(0%,0%,0%);fill-opacity:1;" d="M 40.988281 63.246094 C 40.988281 63.246094 40.808594 63.496094 40.558594 63.855469 C 39.660156 62.800781 37.53125 60.371094 36.355469 59.644531 L 36.777344 59.164062 Z M 40.988281 63.246094 "/>
</g>
<mask id="mask22">
  <g filter="url(#alpha)">
<rect x="0" y="0" width="130" height="71" style="fill:rgb(0%,0%,0%);fill-opacity:0.101961;stroke:none;"/>
  </g>
</mask>
<clipPath id="clip23">
  <rect x="0" y="0" width="130" height="71"/>
</clipPath>
<g id="surface71" clip-path="url(#clip23)">
<path style=" stroke:none;fill-rule:nonzero;fill:rgb(0%,0%,0%);fill-opacity:1;" d="M 52.660156 9.039062 C 52.390625 9.601562 52.261719 10.273438 52.21875 10.941406 C 50.816406 12.070312 48.703125 11.988281 47.410156 10.746094 C 47.496094 9.984375 47.535156 9.386719 47.535156 9.386719 C 47.535156 9.386719 53.5625 7.148438 52.660156 9.039062 Z M 52.660156 9.039062 "/>
</g>
<mask id="mask23">
  <g filter="url(#alpha)">
<rect x="0" y="0" width="130" height="71" style="fill:rgb(0%,0%,0%);fill-opacity:0.101961;stroke:none;"/>
  </g>
</mask>
<clipPath id="clip24">
  <rect x="0" y="0" width="130" height="71"/>
</clipPath>
<g id="surface74" clip-path="url(#clip24)">
<path style=" stroke:none;fill-rule:nonzero;fill:rgb(0%,0%,0%);fill-opacity:1;" d="M 50.585938 14.042969 C 50.585938 14.042969 48.066406 12.957031 47.910156 12.816406 C 47.753906 12.675781 42.527344 25.140625 42.527344 25.140625 L 41.058594 31.339844 C 41.058594 31.339844 48.898438 34.453125 50.59375 34.035156 C 52.289062 33.613281 52.4375 34.035156 52.4375 34.035156 C 52.4375 34.035156 54.171875 25 54.738281 24.195312 C 55.304688 23.390625 54.210938 15.199219 54.210938 15.199219 L 52.25 12.816406 Z M 50.585938 14.042969 "/>
</g>
<mask id="mask24">
  <g filter="url(#alpha)">
<rect x="0" y="0" width="130" height="71" style="fill:rgb(0%,0%,0%);fill-opacity:0.101961;stroke:none;"/>
  </g>
</mask>
<clipPath id="clip25">
  <rect x="0" y="0" width="130" height="71"/>
</clipPath>
<g id="surface77" clip-path="url(#clip25)">
<path style=" stroke:none;fill-rule:nonzero;fill:rgb(0%,0%,0%);fill-opacity:1;" d="M 50.585938 13.625 C 50.585938 13.625 48.066406 12.539062 47.910156 12.398438 C 47.753906 12.257812 42.527344 24.722656 42.527344 24.722656 L 41.058594 30.917969 C 41.058594 30.917969 48.898438 34.035156 50.59375 33.613281 C 52.289062 33.195312 52.4375 33.613281 52.4375 33.613281 C 52.4375 33.613281 54.171875 24.582031 54.738281 23.777344 C 55.304688 22.972656 54.210938 14.777344 54.210938 14.777344 L 52.25 12.398438 Z M 50.585938 13.625 "/>
</g>
<mask id="mask25">
  <g filter="url(#alpha)">
<rect x="0" y="0" width="130" height="71" style="fill:rgb(0%,0%,0%);fill-opacity:0.101961;stroke:none;"/>
  </g>
</mask>
<clipPath id="clip26">
  <rect x="0" y="0" width="130" height="71"/>
</clipPath>
<g id="surface80" clip-path="url(#clip26)">
<path style=" stroke:none;fill-rule:nonzero;fill:rgb(0%,0%,0%);fill-opacity:1;" d="M 48.738281 15.058594 C 48.964844 15.867188 48.4375 17.195312 48.4375 17.195312 C 48.4375 17.195312 46.628906 21.328125 46.101562 23.234375 C 45.574219 25.144531 42.554688 28.992188 42.554688 28.992188 C 42.554688 28.992188 42.113281 29.40625 41.492188 29.980469 C 41.421875 30.042969 41.351562 30.109375 41.277344 30.179688 L 42.519531 24.929688 C 42.519531 24.929688 47.757812 12.464844 47.910156 12.605469 C 48 12.691406 48.980469 13.128906 49.726562 13.457031 C 49.261719 13.851562 48.589844 14.523438 48.738281 15.058594 Z M 48.738281 15.058594 "/>
</g>
<mask id="mask26">
  <g filter="url(#alpha)">
<rect x="0" y="0" width="130" height="71" style="fill:rgb(0%,0%,0%);fill-opacity:0.101961;stroke:none;"/>
  </g>
</mask>
<clipPath id="clip27">
  <rect x="0" y="0" width="130" height="71"/>
</clipPath>
<g id="surface83" clip-path="url(#clip27)">
<path style=" stroke:none;fill-rule:nonzero;fill:rgb(0%,0%,0%);fill-opacity:1;" d="M 39.09375 32.984375 C 39.09375 32.984375 42.222656 37.078125 44.40625 35.75 C 46.59375 34.421875 41.46875 30.953125 41.46875 30.953125 Z M 39.09375 32.984375 "/>
</g>
<mask id="mask27">
  <g filter="url(#alpha)">
<rect x="0" y="0" width="130" height="71" style="fill:rgb(0%,0%,0%);fill-opacity:0.101961;stroke:none;"/>
  </g>
</mask>
<clipPath id="clip28">
  <rect x="0" y="0" width="130" height="71"/>
</clipPath>
<g id="surface86" clip-path="url(#clip28)">
<path style=" stroke:none;fill-rule:nonzero;fill:rgb(0%,0%,0%);fill-opacity:1;" d="M 54.101562 35.027344 C 54.339844 33.09375 55.03125 30.191406 54.46875 29.308594 C 54.1875 28.871094 53.980469 28.039062 53.832031 27.128906 C 53.75 26.636719 53.683594 26.121094 53.632812 25.636719 C 53.496094 24.34375 53.449219 23.234375 53.449219 23.234375 C 53.449219 23.234375 52.09375 17.613281 52.355469 16.460938 C 52.523438 15.738281 52.332031 13.925781 52.167969 12.671875 L 52.253906 12.609375 L 54.203125 14.988281 C 54.203125 14.988281 55.296875 23.179688 54.730469 23.988281 C 54.617188 24.152344 54.449219 24.671875 54.257812 25.390625 L 55.335938 24.972656 L 55.109375 27.035156 L 55.785156 34.773438 Z M 54.101562 35.027344 "/>
</g>
<mask id="mask28">
  <g filter="url(#alpha)">
<rect x="0" y="0" width="130" height="71" style="fill:rgb(0%,0%,0%);fill-opacity:0.101961;stroke:none;"/>
  </g>
</mask>
<clipPath id="clip29">
  <rect x="0" y="0" width="130" height="71"/>
</clipPath>
<g id="surface89" clip-path="url(#clip29)">
<path style=" stroke:none;fill-rule:nonzero;fill:rgb(0%,0%,0%);fill-opacity:1;" d="M 74.796875 22.53125 C 73.789062 22.238281 72.246094 22.230469 71.960938 24.738281 C 71.539062 23.8125 71.273438 23.023438 71.273438 23.023438 L 74.367188 21.804688 C 74.367188 21.804688 74.558594 22.085938 74.796875 22.53125 Z M 74.796875 22.53125 "/>
</g>
<mask id="mask29">
  <g filter="url(#alpha)">
<rect x="0" y="0" width="130" height="71" style="fill:rgb(0%,0%,0%);fill-opacity:0.101961;stroke:none;"/>
  </g>
</mask>
<clipPath id="clip30">
  <rect x="0" y="0" width="130" height="71"/>
</clipPath>
<g id="surface92" clip-path="url(#clip30)">
<path style=" stroke:none;fill-rule:nonzero;fill:rgb(0%,0%,0%);fill-opacity:1;" d="M 39.816406 68.449219 C 39.660156 68.855469 39.167969 68.707031 39.167969 68.707031 C 37.628906 68.546875 36.699219 64.691406 37.09375 64.246094 C 37.488281 63.804688 36.847656 62.785156 36.847656 62.785156 L 36.011719 63.085938 L 35.25 60.90625 L 35.730469 60.355469 C 36.210938 61.128906 36.898438 62.238281 37.058594 62.523438 C 37.367188 63.109375 37.511719 63.757812 37.484375 64.414062 C 37.457031 65.09375 38.308594 68.359375 39.816406 68.449219 Z M 39.816406 68.449219 "/>
</g>
<mask id="mask30">
  <g filter="url(#alpha)">
<rect x="0" y="0" width="130" height="71" style="fill:rgb(0%,0%,0%);fill-opacity:0.101961;stroke:none;"/>
  </g>
</mask>
<clipPath id="clip31">
  <rect x="0" y="0" width="130" height="71"/>
</clipPath>
<g id="surface95" clip-path="url(#clip31)">
<path style=" stroke:none;fill-rule:nonzero;fill:rgb(0%,0%,0%);fill-opacity:1;" d="M 53.332031 7.613281 C 53.257812 7.585938 53.179688 7.558594 53.105469 7.53125 C 52.847656 7.433594 52.574219 7.320312 52.417969 7.109375 C 52.273438 6.914062 52.226562 6.640625 52.003906 6.527344 C 51.746094 6.402344 51.4375 6.574219 51.160156 6.632812 C 50.828125 6.707031 50.480469 6.621094 50.160156 6.507812 C 49.675781 6.34375 49.003906 6.042969 48.511719 6.355469 C 48.125 6.597656 48.273438 7.117188 48.175781 7.484375 C 48.023438 8.058594 47.371094 8.429688 47.246094 9.007812 C 47.191406 9.261719 47.226562 9.574219 47.003906 9.734375 C 46.941406 9.777344 46.867188 9.808594 46.789062 9.824219 C 46.191406 8.703125 46.339844 7.363281 47.167969 6.378906 C 47.992188 5.394531 49.355469 4.933594 50.667969 5.199219 C 51.984375 5.460938 53.019531 6.402344 53.335938 7.617188 Z M 53.332031 7.613281 "/>
</g>
<mask id="mask31">
  <g filter="url(#alpha)">
<rect x="0" y="0" width="130" height="71" style="fill:rgb(0%,0%,0%);fill-opacity:0.101961;stroke:none;"/>
  </g>
</mask>
<clipPath id="clip32">
  <rect x="0" y="0" width="130" height="71"/>
</clipPath>
<g id="surface98" clip-path="url(#clip32)">
<path style=" stroke:none;fill-rule:nonzero;fill:rgb(0%,0%,0%);fill-opacity:1;" d="M 49.605469 44.292969 C 49.605469 44.292969 53.15625 46.394531 53.269531 47.199219 Z M 49.605469 44.292969 "/>
</g>
<mask id="mask32">
  <g filter="url(#alpha)">
<rect x="0" y="0" width="130" height="71" style="fill:rgb(0%,0%,0%);fill-opacity:0.101961;stroke:none;"/>
  </g>
</mask>
<clipPath id="clip33">
  <rect x="0" y="0" width="130" height="71"/>
</clipPath>
<g id="surface101" clip-path="url(#clip33)">
<path style=" stroke:none;fill-rule:nonzero;fill:rgb(0%,0%,0%);fill-opacity:1;" d="M 49.425781 45.972656 C 49.425781 45.972656 53.496094 47.792969 53.269531 48.421875 Z M 49.425781 45.972656 "/>
</g>
<mask id="mask33">
  <g filter="url(#alpha)">
<rect x="0" y="0" width="130" height="71" style="fill:rgb(0%,0%,0%);fill-opacity:0.101961;stroke:none;"/>
  </g>
</mask>
<clipPath id="clip34">
  <rect x="0" y="0" width="130" height="71"/>
</clipPath>
<g id="surface104" clip-path="url(#clip34)">
<path style=" stroke:none;fill-rule:nonzero;fill:rgb(0%,0%,0%);fill-opacity:1;" d="M 49.15625 47.582031 C 49.15625 47.582031 51.453125 48.703125 51.605469 49.367188 Z M 49.15625 47.582031 "/>
</g>
<mask id="mask34">
  <g filter="url(#alpha)">
<rect x="0" y="0" width="130" height="71" style="fill:rgb(0%,0%,0%);fill-opacity:0.101961;stroke:none;"/>
  </g>
</mask>
<clipPath id="clip35">
  <rect x="0" y="0" width="130" height="71"/>
</clipPath>
<g id="surface107" clip-path="url(#clip35)">
<path style=" stroke:none;fill-rule:nonzero;fill:rgb(0%,0%,0%);fill-opacity:1;" d="M 50.136719 50.101562 C 50.136719 50.101562 51.640625 51.328125 51.945312 51.015625 C 52.246094 50.699219 50.136719 50.101562 50.136719 50.101562 Z M 50.136719 50.101562 "/>
</g>
<mask id="mask35">
  <g filter="url(#alpha)">
<rect x="0" y="0" width="130" height="71" style="fill:rgb(0%,0%,0%);fill-opacity:0.101961;stroke:none;"/>
  </g>
</mask>
<clipPath id="clip36">
  <rect x="0" y="0" width="130" height="71"/>
</clipPath>
<g id="surface110" clip-path="url(#clip36)">
<path style=" stroke:none;fill-rule:nonzero;fill:rgb(0%,0%,0%);fill-opacity:1;" d="M 48.023438 50.875 C 48.023438 50.875 49.199219 52.625 48.632812 52.730469 C 48.066406 52.835938 48.023438 50.875 48.023438 50.875 Z M 48.023438 50.875 "/>
</g>
<mask id="mask36">
  <g filter="url(#alpha)">
<rect x="0" y="0" width="130" height="71" style="fill:rgb(0%,0%,0%);fill-opacity:0.101961;stroke:none;"/>
  </g>
</mask>
<clipPath id="clip37">
  <rect x="0" y="0" width="130" height="71"/>
</clipPath>
<g id="surface113" clip-path="url(#clip37)">
<path style=" stroke:none;fill-rule:nonzero;fill:rgb(0%,0%,0%);fill-opacity:1;" d="M 42.867188 19.785156 C 42.867188 19.785156 40.871094 20.90625 41.472656 21.183594 C 42.074219 21.464844 42.867188 19.785156 42.867188 19.785156 Z M 42.867188 19.785156 "/>
</g>
<mask id="mask37">
  <g filter="url(#alpha)">
<rect x="0" y="0" width="130" height="71" style="fill:rgb(0%,0%,0%);fill-opacity:0.101961;stroke:none;"/>
  </g>
</mask>
<clipPath id="clip38">
  <rect x="0" y="0" width="130" height="71"/>
</clipPath>
<g id="surface116" clip-path="url(#clip38)">
<path style=" stroke:none;fill-rule:nonzero;fill:rgb(0%,0%,0%);fill-opacity:1;" d="M 42.867188 15.652344 C 42.867188 15.652344 40.832031 19.121094 41.773438 18.875 C 42.71875 18.628906 42.867188 15.652344 42.867188 15.652344 Z M 42.867188 15.652344 "/>
</g>
<mask id="mask38">
  <g filter="url(#alpha)">
<rect x="0" y="0" width="130" height="71" style="fill:rgb(0%,0%,0%);fill-opacity:0.101961;stroke:none;"/>
  </g>
</mask>
<clipPath id="clip39">
  <rect x="0" y="0" width="130" height="71"/>
</clipPath>
<g id="surface119" clip-path="url(#clip39)">
<path style=" stroke:none;fill-rule:nonzero;fill:rgb(0%,0%,0%);fill-opacity:1;" d="M 64.492188 19.121094 C 64.492188 19.121094 63.246094 20.480469 63.472656 21.21875 Z M 64.492188 19.121094 "/>
</g>
<mask id="mask39">
  <g filter="url(#alpha)">
<rect x="0" y="0" width="130" height="71" style="fill:rgb(0%,0%,0%);fill-opacity:0.101961;stroke:none;"/>
  </g>
</mask>
<clipPath id="clip40">
  <rect x="0" y="0" width="130" height="71"/>
</clipPath>
<g id="surface122" clip-path="url(#clip40)">
<path style=" stroke:none;fill-rule:nonzero;fill:rgb(0%,0%,0%);fill-opacity:1;" d="M 67.738281 19.785156 C 67.738281 19.785156 65.871094 21.324219 66.144531 21.5 Z M 67.738281 19.785156 "/>
</g>
<mask id="mask40">
  <g filter="url(#alpha)">
<rect x="0" y="0" width="130" height="71" style="fill:rgb(0%,0%,0%);fill-opacity:0.101961;stroke:none;"/>
  </g>
</mask>
<clipPath id="clip41">
  <rect x="0" y="0" width="130" height="71"/>
</clipPath>
<g id="surface125" clip-path="url(#clip41)">
<path style=" stroke:none;fill-rule:nonzero;fill:rgb(0%,0%,0%);fill-opacity:1;" d="M 68.898438 21.675781 C 68.898438 21.675781 68.710938 22.691406 69.011719 22.726562 Z M 68.898438 21.675781 "/>
</g>
<mask id="mask41">
  <g filter="url(#alpha)">
<rect x="0" y="0" width="130" height="71" style="fill:rgb(0%,0%,0%);fill-opacity:0.0509804;stroke:none;"/>
  </g>
</mask>
<clipPath id="clip42">
  <rect x="0" y="0" width="130" height="71"/>
</clipPath>
<g id="surface128" clip-path="url(#clip42)">
<path style=" stroke:none;fill-rule:nonzero;fill:rgb(0%,0%,0%);fill-opacity:1;" d="M 48.53125 43.039062 C 48.050781 43.617188 48.050781 44.640625 47.835938 45.0625 C 47.714844 45.292969 47.453125 45.691406 47.238281 46.015625 C 47.167969 45.804688 47.03125 45.679688 46.820312 45.789062 C 46.679688 44.828125 46.4375 43.164062 46.355469 42.828125 C 46.242188 42.355469 47.488281 41.097656 47.488281 41.097656 C 47.488281 41.097656 48.703125 41.332031 49.011719 41.910156 C 49.324219 42.488281 49.011719 42.460938 48.53125 43.039062 Z M 48.53125 43.039062 "/>
</g>
<mask id="mask42">
  <g filter="url(#alpha)">
<rect x="0" y="0" width="130" height="71" style="fill:rgb(0%,0%,0%);fill-opacity:0.101961;stroke:none;"/>
  </g>
</mask>
<clipPath id="clip43">
  <rect x="0" y="0" width="130" height="71"/>
</clipPath>
<g id="surface131" clip-path="url(#clip43)">
<path style=" stroke:none;fill-rule:nonzero;fill:rgb(0%,0%,0%);fill-opacity:1;" d="M 42.257812 30.882812 C 40.902344 31.058594 38.378906 34.417969 38.378906 34.417969 C 38.378906 34.417969 38.046875 33.972656 37.585938 33.347656 C 37.007812 32.554688 36.230469 31.472656 35.664062 30.652344 L 38.976562 27.480469 L 39.578125 28.082031 C 39.578125 28.082031 40.75 29.167969 40.75 29.378906 C 40.75 29.460938 40.976562 29.707031 41.261719 29.980469 C 41.703125 30.402344 42.257812 30.882812 42.257812 30.882812 Z M 42.257812 30.882812 "/>
</g>
<mask id="mask43">
  <g filter="url(#alpha)">
<rect x="0" y="0" width="130" height="71" style="fill:rgb(0%,0%,0%);fill-opacity:0.101961;stroke:none;"/>
  </g>
</mask>
<clipPath id="clip44">
  <rect x="0" y="0" width="130" height="71"/>
</clipPath>
<g id="surface134" clip-path="url(#clip44)">
<path style=" stroke:none;fill-rule:nonzero;fill:rgb(0%,0%,0%);fill-opacity:1;" d="M 37.933594 16.671875 C 37.886719 16.582031 37.847656 16.515625 37.820312 16.472656 L 39.28125 16.5625 L 40.054688 21.03125 C 39.476562 19.804688 38.347656 17.4375 37.933594 16.671875 Z M 37.933594 16.671875 "/>
</g>
<mask id="mask44">
  <g filter="url(#alpha)">
<rect x="0" y="0" width="130" height="71" style="fill:rgb(0%,0%,0%);fill-opacity:0.101961;stroke:none;"/>
  </g>
</mask>
<clipPath id="clip45">
  <rect x="0" y="0" width="130" height="71"/>
</clipPath>
<g id="surface137" clip-path="url(#clip45)">
<path style=" stroke:none;fill-rule:nonzero;fill:rgb(0%,0%,0%);fill-opacity:1;" d="M 41.035156 30.195312 C 39.824219 31.316406 38.121094 32.886719 37.589844 33.34375 C 37.511719 33.414062 37.457031 33.457031 37.433594 33.472656 C 37.386719 33.503906 37.332031 33.523438 37.277344 33.535156 C 36.746094 32.808594 35.984375 31.761719 35.398438 30.910156 L 35.667969 30.648438 L 38.75 27.703125 L 39.132812 28.085938 C 39.132812 28.085938 40.300781 29.171875 40.300781 29.382812 C 40.300781 29.480469 40.664062 29.847656 41.035156 30.195312 Z M 41.035156 30.195312 "/>
</g>
<mask id="mask45">
  <g filter="url(#alpha)">
<rect x="0" y="0" width="130" height="71" style="fill:rgb(0%,0%,0%);fill-opacity:0.101961;stroke:none;"/>
  </g>
</mask>
<clipPath id="clip46">
  <rect x="0" y="0" width="130" height="71"/>
</clipPath>
<g id="surface140" clip-path="url(#clip46)">
<path style=" stroke:none;fill-rule:nonzero;fill:rgb(0%,0%,0%);fill-opacity:1;" d="M 33.035156 23.53125 C 33.035156 23.53125 35.066406 23.144531 35.105469 23.390625 C 35.144531 23.636719 33.035156 23.53125 33.035156 23.53125 Z M 33.035156 23.53125 "/>
</g>
<mask id="mask46">
  <g filter="url(#alpha)">
<rect x="0" y="0" width="130" height="71" style="fill:rgb(0%,0%,0%);fill-opacity:0.101961;stroke:none;"/>
  </g>
</mask>
<clipPath id="clip47">
  <rect x="0" y="0" width="130" height="71"/>
</clipPath>
<g id="surface143" clip-path="url(#clip47)">
<path style=" stroke:none;fill-rule:nonzero;fill:rgb(0%,0%,0%);fill-opacity:1;" d="M 34.730469 25.4375 C 34.730469 25.4375 36.453125 25.648438 36.378906 25.992188 C 36.304688 26.335938 34.730469 25.4375 34.730469 25.4375 Z M 34.730469 25.4375 "/>
</g>
<mask id="mask47">
  <g filter="url(#alpha)">
<rect x="0" y="0" width="130" height="71" style="fill:rgb(0%,0%,0%);fill-opacity:0.101961;stroke:none;"/>
  </g>
</mask>
<clipPath id="clip48">
  <rect x="0" y="0" width="130" height="71"/>
</clipPath>
<g id="surface146" clip-path="url(#clip48)">
<path style=" stroke:none;fill-rule:nonzero;fill:rgb(0%,0%,0%);fill-opacity:1;" d="M 36.15625 19.488281 C 36.15625 19.488281 37.8125 21.667969 38.039062 21.21875 Z M 36.15625 19.488281 "/>
</g>
<mask id="mask48">
  <g filter="url(#alpha)">
<rect x="0" y="0" width="130" height="71" style="fill:rgb(0%,0%,0%);fill-opacity:0.101961;stroke:none;"/>
  </g>
</mask>
<clipPath id="clip49">
  <rect x="0" y="0" width="130" height="71"/>
</clipPath>
<g id="surface149" clip-path="url(#clip49)">
<path style=" stroke:none;fill-rule:nonzero;fill:rgb(0%,0%,0%);fill-opacity:1;" d="M 46.121094 3.234375 C 46.128906 2.976562 46.09375 2.722656 46.019531 2.480469 C 45.984375 2.375 45.960938 2.269531 45.941406 2.164062 C 45.929688 2.34375 45.953125 2.519531 46.019531 2.691406 C 46.070312 2.867188 46.105469 3.050781 46.121094 3.234375 Z M 46.121094 3.234375 "/>
<path style=" stroke:none;fill-rule:nonzero;fill:rgb(0%,0%,0%);fill-opacity:1;" d="M 54.046875 5.542969 C 54.089844 5.226562 54.324219 4.941406 54.34375 4.621094 C 54.347656 4.566406 54.347656 4.511719 54.339844 4.457031 C 54.292969 4.785156 54.050781 5.074219 54.039062 5.402344 C 54.035156 5.449219 54.039062 5.496094 54.046875 5.542969 Z M 54.046875 5.542969 "/>
<path style=" stroke:none;fill-rule:nonzero;fill:rgb(0%,0%,0%);fill-opacity:1;" d="M 54.292969 7.066406 C 54.148438 7.214844 53.933594 7.289062 53.71875 7.269531 C 53.503906 7.246094 53.296875 7.195312 53.105469 7.109375 C 52.84375 7.011719 52.570312 6.898438 52.414062 6.6875 C 52.269531 6.492188 52.226562 6.21875 52 6.109375 C 51.742188 5.980469 51.4375 6.152344 51.15625 6.210938 C 50.824219 6.285156 50.476562 6.199219 50.15625 6.089844 C 49.675781 5.925781 49 5.621094 48.507812 5.933594 C 48.121094 6.179688 48.273438 6.695312 48.171875 7.0625 C 48.019531 7.636719 47.367188 8.007812 47.242188 8.589844 C 47.1875 8.84375 47.222656 9.15625 47 9.3125 C 46.914062 9.367188 46.816406 9.402344 46.714844 9.417969 C 46.355469 9.492188 45.910156 9.507812 45.695312 9.234375 C 45.632812 9.15625 45.59375 9.0625 45.582031 8.964844 C 45.554688 9.132812 45.59375 9.304688 45.695312 9.445312 C 45.914062 9.71875 46.359375 9.703125 46.714844 9.628906 C 46.816406 9.613281 46.914062 9.578125 47 9.523438 C 47.226562 9.367188 47.1875 9.054688 47.242188 8.796875 C 47.367188 8.21875 48.019531 7.847656 48.171875 7.273438 C 48.273438 6.90625 48.121094 6.386719 48.507812 6.144531 C 49 5.828125 49.675781 6.136719 50.15625 6.300781 C 50.476562 6.410156 50.824219 6.496094 51.15625 6.421875 C 51.441406 6.359375 51.742188 6.1875 52 6.316406 C 52.226562 6.429688 52.269531 6.703125 52.414062 6.898438 C 52.570312 7.109375 52.84375 7.226562 53.105469 7.320312 C 53.296875 7.402344 53.503906 7.457031 53.71875 7.480469 C 53.933594 7.5 54.148438 7.421875 54.292969 7.277344 C 54.40625 7.136719 54.449219 6.964844 54.417969 6.792969 C 54.40625 6.894531 54.363281 6.988281 54.292969 7.066406 Z M 54.292969 7.066406 "/>
<path style=" stroke:none;fill-rule:nonzero;fill:rgb(0%,0%,0%);fill-opacity:1;" d="M 45.179688 6.347656 C 45.140625 6.082031 44.902344 5.886719 44.777344 5.644531 C 44.730469 5.554688 44.699219 5.457031 44.6875 5.355469 C 44.667969 5.527344 44.699219 5.699219 44.777344 5.855469 C 44.898438 6.089844 45.125 6.28125 45.171875 6.535156 C 45.183594 6.472656 45.1875 6.410156 45.179688 6.347656 Z M 45.179688 6.347656 "/>
<path style=" stroke:none;fill-rule:nonzero;fill:rgb(0%,0%,0%);fill-opacity:1;" d="M 45.808594 7.988281 C 45.839844 7.875 45.816406 7.753906 45.742188 7.65625 C 45.617188 7.519531 45.371094 7.550781 45.214844 7.445312 C 45.132812 7.386719 45.078125 7.296875 45.066406 7.195312 C 45.042969 7.367188 45.066406 7.558594 45.214844 7.65625 C 45.363281 7.757812 45.617188 7.734375 45.742188 7.867188 C 45.773438 7.902344 45.796875 7.945312 45.808594 7.988281 Z M 45.808594 7.988281 "/>
</g>
<mask id="mask49">
  <g filter="url(#alpha)">
<rect x="0" y="0" width="130" height="71" style="fill:rgb(0%,0%,0%);fill-opacity:0.101961;stroke:none;"/>
  </g>
</mask>
<clipPath id="clip50">
  <rect x="0" y="0" width="130" height="71"/>
</clipPath>
<g id="surface152" clip-path="url(#clip50)">
<path style=" stroke:none;fill-rule:nonzero;fill:rgb(72.941176%,38.823529%,100%);fill-opacity:1;" d="M 19.0625 66.21875 C 19.0625 65.929688 17.582031 65.695312 15.753906 65.695312 C 13.925781 65.695312 12.441406 65.929688 12.441406 66.21875 C 12.441406 66.503906 13.925781 66.738281 15.753906 66.738281 C 17.582031 66.738281 19.0625 66.503906 19.0625 66.21875 Z M 19.0625 66.21875 "/>
</g>
</defs>
<g id="surface1">
<use xlink:href="#surface5" mask="url(#mask0)"/>
<use xlink:href="#surface8" mask="url(#mask1)"/>
<path style="fill:none;stroke-width:2;stroke-linecap:butt;stroke-linejoin:miter;stroke:rgb(32.54902%,32.941176%,38.039216%);stroke-opacity:1;stroke-miterlimit:10;" d="M 776.703077 756.830035 C 776.703077 756.830035 834.686851 683.338838 830.194663 610.331136 C 828.328678 579.647817 835.861731 549.150458 852.724712 523.488046 C 860.776094 511.326294 869.89869 499.90838 879.988834 489.420264 " transform="matrix(0.113043,0,0,0.10503,-2.801217,-11.78642)"/>
<path style=" stroke:none;fill-rule:nonzero;fill:rgb(72.941176%,38.823529%,100%);fill-opacity:1;" d="M 96.386719 34.78125 C 95.921875 35.855469 96.667969 39.746094 96.667969 39.746094 C 96.667969 39.746094 100.101562 37.414062 100.566406 36.339844 C 101.03125 35.269531 100.46875 34.050781 99.316406 33.617188 C 98.160156 33.1875 96.847656 33.707031 96.382812 34.78125 Z M 96.386719 34.78125 "/>
<path style=" stroke:none;fill-rule:nonzero;fill:rgb(72.941176%,38.823529%,100%);fill-opacity:1;" d="M 90.363281 39.433594 C 90.601562 40.566406 93.503906 43.457031 93.503906 43.457031 C 93.503906 43.457031 95.023438 39.765625 94.785156 38.632812 C 94.535156 37.507812 93.359375 36.78125 92.148438 37 C 90.9375 37.222656 90.140625 38.304688 90.363281 39.433594 Z M 90.363281 39.433594 "/>
<path style=" stroke:none;fill-rule:nonzero;fill:rgb(72.941176%,38.823529%,100%);fill-opacity:1;" d="M 86.125 49.640625 C 86.945312 50.507812 91.019531 51.636719 91.019531 51.636719 C 91.019531 51.636719 90.328125 47.738281 89.503906 46.871094 C 88.683594 46.003906 87.261719 45.917969 86.328125 46.683594 C 85.394531 47.445312 85.300781 48.769531 86.125 49.636719 Z M 86.125 49.640625 "/>
<path style=" stroke:none;fill-rule:nonzero;fill:rgb(72.941176%,38.823529%,100%);fill-opacity:1;" d="M 84.789062 58.035156 C 85.441406 59.019531 89.25 60.777344 89.25 60.777344 C 89.25 60.777344 89.277344 56.824219 88.625 55.839844 C 88.207031 55.199219 87.449219 54.8125 86.640625 54.832031 C 85.832031 54.851562 85.09375 55.273438 84.714844 55.933594 C 84.332031 56.597656 84.359375 57.398438 84.789062 58.035156 Z M 84.789062 58.035156 "/>
<path style=" stroke:none;fill-rule:nonzero;fill:rgb(72.941176%,38.823529%,100%);fill-opacity:1;" d="M 97.808594 45.300781 C 96.65625 45.742188 92.464844 45.074219 92.464844 45.074219 C 92.464844 45.074219 94.949219 41.867188 96.097656 41.429688 C 97.246094 41.011719 98.539062 41.527344 99.007812 42.585938 C 99.472656 43.640625 98.9375 44.851562 97.808594 45.300781 Z M 97.808594 45.300781 "/>
<path style=" stroke:none;fill-rule:nonzero;fill:rgb(72.941176%,38.823529%,100%);fill-opacity:1;" d="M 96.113281 55.101562 C 94.867188 55.199219 91.085938 53.398438 91.085938 53.398438 C 91.085938 53.398438 94.488281 51.03125 95.730469 50.929688 C 96.539062 50.855469 97.328125 51.1875 97.796875 51.808594 C 98.269531 52.425781 98.34375 53.230469 97.992188 53.914062 C 97.644531 54.59375 96.921875 55.050781 96.113281 55.101562 Z M 96.113281 55.101562 "/>
<path style=" stroke:none;fill-rule:nonzero;fill:rgb(72.941176%,38.823529%,100%);fill-opacity:1;" d="M 93.050781 64.417969 C 91.847656 64.707031 87.789062 63.527344 87.789062 63.527344 C 87.789062 63.527344 90.710938 60.65625 91.914062 60.367188 C 93.105469 60.109375 94.296875 60.78125 94.601562 61.878906 C 94.910156 62.976562 94.21875 64.101562 93.046875 64.417969 Z M 93.050781 64.417969 "/>
<use xlink:href="#surface11" mask="url(#mask2)"/>
<use xlink:href="#surface14" mask="url(#mask3)"/>
<use xlink:href="#surface17" mask="url(#mask4)"/>
<use xlink:href="#surface20" mask="url(#mask5)"/>
<use xlink:href="#surface23" mask="url(#mask6)"/>
<use xlink:href="#surface26" mask="url(#mask7)"/>
<use xlink:href="#surface29" mask="url(#mask8)"/>
<path style="fill:none;stroke-width:2;stroke-linecap:butt;stroke-linejoin:miter;stroke:rgb(32.54902%,32.941176%,38.039216%);stroke-opacity:1;stroke-miterlimit:10;" d="M 777.186851 753.743107 C 777.186851 753.743107 860.015877 710.117007 885.483125 641.497949 C 896.195264 612.711417 915.477115 587.867227 941.255361 571.242447 C 953.522488 563.357764 966.515276 556.663222 979.991839 551.15882 " transform="matrix(0.113043,0,0,0.10503,-2.801217,-11.78642)"/>
<path style=" stroke:none;fill-rule:nonzero;fill:rgb(72.941176%,38.823529%,100%);fill-opacity:1;" d="M 109.824219 41.570312 C 108.933594 42.375 107.917969 46.210938 107.917969 46.210938 C 107.917969 46.210938 112.074219 45.371094 112.964844 44.570312 C 113.835938 43.761719 113.847656 42.449219 112.988281 41.628906 C 112.128906 40.808594 110.71875 40.78125 109.824219 41.570312 Z M 109.824219 41.570312 "/>
<path style=" stroke:none;fill-rule:nonzero;fill:rgb(72.941176%,38.823529%,100%);fill-opacity:1;" d="M 102.289062 43.554688 C 102.011719 44.683594 103.402344 48.414062 103.402344 48.414062 C 103.402344 48.414062 106.402344 45.613281 106.683594 44.488281 C 106.878906 43.753906 106.632812 42.976562 106.039062 42.457031 C 105.445312 41.9375 104.597656 41.753906 103.820312 41.984375 C 103.039062 42.210938 102.457031 42.8125 102.289062 43.554688 Z M 102.289062 43.554688 "/>
<path style=" stroke:none;fill-rule:nonzero;fill:rgb(72.941176%,38.823529%,100%);fill-opacity:1;" d="M 93.964844 51.292969 C 94.335938 52.394531 97.566406 54.96875 97.566406 54.96875 C 97.566406 54.96875 98.636719 51.144531 98.261719 50.039062 C 98.035156 49.3125 97.398438 48.753906 96.601562 48.585938 C 95.804688 48.414062 94.972656 48.660156 94.425781 49.222656 C 93.878906 49.789062 93.703125 50.582031 93.964844 51.300781 Z M 93.964844 51.292969 "/>
<path style=" stroke:none;fill-rule:nonzero;fill:rgb(72.941176%,38.823529%,100%);fill-opacity:1;" d="M 89.078125 58.464844 C 89.246094 59.609375 91.960938 62.648438 91.960938 62.648438 C 91.960938 62.648438 93.710938 59.046875 93.542969 57.902344 C 93.378906 56.757812 92.242188 55.953125 91.007812 56.109375 C 89.777344 56.265625 88.910156 57.320312 89.078125 58.464844 Z M 89.078125 58.464844 "/>
<path style=" stroke:none;fill-rule:nonzero;fill:rgb(72.941176%,38.823529%,100%);fill-opacity:1;" d="M 106.527344 51.722656 C 105.285156 51.6875 101.742188 49.5 101.742188 49.5 C 101.742188 49.5 105.414062 47.507812 106.65625 47.539062 C 107.886719 47.585938 108.847656 48.542969 108.8125 49.6875 C 108.777344 50.832031 107.761719 51.738281 106.527344 51.722656 Z M 106.527344 51.722656 "/>
<path style=" stroke:none;fill-rule:nonzero;fill:rgb(72.941176%,38.823529%,100%);fill-opacity:1;" d="M 100.703125 60.042969 C 99.527344 59.664062 96.851562 56.59375 96.851562 56.59375 C 96.851562 56.59375 100.996094 55.707031 102.175781 56.085938 C 103.324219 56.480469 103.921875 57.65625 103.523438 58.730469 C 103.121094 59.808594 101.871094 60.390625 100.703125 60.042969 Z M 100.703125 60.042969 "/>
<path style=" stroke:none;fill-rule:nonzero;fill:rgb(72.941176%,38.823529%,100%);fill-opacity:1;" d="M 93.851562 67.40625 C 92.625 67.21875 89.425781 64.613281 89.425781 64.613281 C 89.425781 64.613281 93.351562 63.089844 94.578125 63.273438 C 95.789062 63.480469 96.597656 64.546875 96.398438 65.671875 C 96.199219 66.800781 95.066406 67.570312 93.851562 67.40625 Z M 93.851562 67.40625 "/>
<path style=" stroke:none;fill-rule:nonzero;fill:rgb(27.45098%,26.27451%,32.54902%);fill-opacity:1;" d="M 85.875 68.019531 L 84.875 68.019531 L 77.539062 32.84375 L 76.597656 68.019531 L 75.535156 68.019531 L 74.34375 32.902344 L 67.195312 68.019531 L 66.066406 68.019531 L 70.925781 31.863281 L 71.085938 30.6875 L 80.613281 29.699219 L 80.910156 31.863281 Z M 85.875 68.019531 "/>
<path style=" stroke:none;fill-rule:nonzero;fill:rgb(27.45098%,26.27451%,32.54902%);fill-opacity:1;" d="M 59.570312 22.644531 L 65.636719 22.644531 L 65.636719 26.140625 L 59.570312 26.140625 Z M 59.570312 22.644531 "/>
<path style=" stroke:none;fill-rule:nonzero;fill:rgb(27.45098%,26.27451%,32.54902%);fill-opacity:1;" d="M 94.761719 21.117188 L 98.429688 19.742188 L 99.230469 19.742188 C 99.476562 19.742188 99.671875 19.925781 99.671875 20.152344 L 99.671875 29.75 C 99.671875 29.976562 99.476562 30.160156 99.230469 30.160156 L 98.429688 30.160156 L 94.761719 28.742188 Z M 94.761719 21.117188 "/>
<path style=" stroke:none;fill-rule:nonzero;fill:rgb(27.45098%,26.27451%,32.54902%);fill-opacity:1;" d="M 87.261719 21.554688 L 94.761719 21.554688 L 94.761719 28.304688 L 87.261719 28.304688 Z M 87.261719 21.554688 "/>
<path style=" stroke:none;fill-rule:nonzero;fill:rgb(31.764706%,30.588235%,49.803922%);fill-opacity:1;" d="M 74.246094 8.878906 L 79.074219 8.878906 L 79.074219 9.695312 L 74.246094 9.695312 Z M 74.246094 8.878906 "/>
<path style=" stroke:none;fill-rule:nonzero;fill:rgb(31.764706%,30.588235%,49.803922%);fill-opacity:1;" d="M 68.738281 9.9375 L 82.328125 9.9375 L 82.328125 19.152344 L 68.738281 19.152344 Z M 68.738281 9.9375 "/>
<use xlink:href="#surface32" mask="url(#mask9)"/>
<use xlink:href="#surface35" mask="url(#mask10)"/>
<use xlink:href="#surface38" mask="url(#mask11)"/>
<use xlink:href="#surface41" mask="url(#mask12)"/>
<path style=" stroke:none;fill-rule:nonzero;fill:rgb(31.764706%,30.588235%,49.803922%);fill-opacity:1;" d="M 64.964844 18.234375 L 86.050781 18.234375 C 86.71875 18.234375 87.261719 18.738281 87.261719 19.359375 L 87.261719 30.566406 C 87.261719 31.183594 86.71875 31.6875 86.050781 31.6875 L 64.964844 31.6875 C 64.296875 31.6875 63.753906 31.183594 63.753906 30.566406 L 63.753906 19.359375 C 63.753906 18.738281 64.296875 18.234375 64.964844 18.234375 Z M 64.964844 18.234375 "/>
<path style=" stroke:none;fill-rule:nonzero;fill:rgb(31.764706%,30.588235%,49.803922%);fill-opacity:1;" d="M 94.691406 21.117188 L 94.761719 21.117188 L 94.761719 28.742188 L 94.691406 28.742188 C 94.367188 28.742188 94.101562 28.496094 94.101562 28.195312 L 94.101562 21.664062 C 94.101562 21.363281 94.367188 21.117188 94.691406 21.117188 Z M 94.691406 21.117188 "/>
<path style=" stroke:none;fill-rule:nonzero;fill:rgb(31.764706%,30.588235%,49.803922%);fill-opacity:1;" d="M 98.429688 19.746094 L 99.1875 19.746094 C 99.457031 19.746094 99.671875 19.949219 99.671875 20.195312 L 99.671875 29.714844 C 99.671875 29.960938 99.457031 30.164062 99.1875 30.164062 L 98.429688 30.164062 Z M 98.429688 19.746094 "/>
<use xlink:href="#surface44" mask="url(#mask13)"/>
<path style=" stroke:none;fill-rule:nonzero;fill:rgb(31.764706%,30.588235%,49.803922%);fill-opacity:1;" d="M 59.164062 21.554688 L 59.652344 21.554688 C 60.101562 21.554688 60.464844 21.894531 60.464844 22.3125 L 60.464844 26.738281 C 60.464844 27.15625 60.101562 27.496094 59.652344 27.496094 L 59.164062 27.496094 C 58.714844 27.496094 58.351562 27.15625 58.351562 26.738281 L 58.351562 22.3125 C 58.351562 21.894531 58.714844 21.554688 59.164062 21.554688 Z M 59.164062 21.554688 "/>
<path style=" stroke:none;fill-rule:nonzero;fill:rgb(27.45098%,26.27451%,32.54902%);fill-opacity:1;" d="M 75.507812 9.9375 C 75.507812 13.410156 72.480469 16.226562 68.738281 16.226562 C 65 16.226562 61.96875 13.410156 61.96875 9.9375 C 61.96875 6.460938 65 3.644531 68.738281 3.644531 C 72.480469 3.644531 75.507812 6.460938 75.507812 9.9375 Z M 75.507812 9.9375 "/>
<path style=" stroke:none;fill-rule:nonzero;fill:rgb(72.941176%,38.823529%,100%);fill-opacity:1;" d="M 73.816406 9.9375 C 73.816406 12.542969 71.542969 14.652344 68.738281 14.652344 C 65.933594 14.652344 63.660156 12.542969 63.660156 9.9375 C 63.660156 7.332031 65.933594 5.21875 68.738281 5.21875 C 71.542969 5.21875 73.816406 7.332031 73.816406 9.9375 Z M 73.816406 9.9375 "/>
<path style=" stroke:none;fill-rule:nonzero;fill:rgb(27.45098%,26.27451%,32.54902%);fill-opacity:1;" d="M 86.226562 10.066406 C 86.226562 12.601562 84.019531 14.652344 81.292969 14.652344 C 78.566406 14.652344 76.355469 12.601562 76.355469 10.066406 C 76.355469 7.535156 78.566406 5.480469 81.292969 5.480469 C 84.019531 5.480469 86.226562 7.535156 86.226562 10.066406 Z M 86.226562 10.066406 "/>
<path style=" stroke:none;fill-rule:nonzero;fill:rgb(72.941176%,38.823529%,100%);fill-opacity:1;" d="M 84.992188 10.066406 C 84.992188 11.964844 83.335938 13.507812 81.292969 13.507812 C 79.246094 13.507812 77.589844 11.964844 77.589844 10.066406 C 77.589844 8.167969 79.246094 6.628906 81.292969 6.628906 C 83.335938 6.628906 84.992188 8.167969 84.992188 10.066406 Z M 84.992188 10.066406 "/>
<path style=" stroke:none;fill-rule:nonzero;fill:rgb(72.941176%,38.823529%,100%);fill-opacity:1;" d="M 81.558594 20.238281 C 81.558594 20.570312 81.269531 20.839844 80.910156 20.839844 C 80.550781 20.839844 80.257812 20.570312 80.257812 20.238281 C 80.257812 19.902344 80.550781 19.632812 80.910156 19.632812 C 81.269531 19.632812 81.558594 19.902344 81.558594 20.238281 Z M 81.558594 20.238281 "/>
<use xlink:href="#surface47" mask="url(#mask14)"/>
<path style=" stroke:none;fill-rule:nonzero;fill:url(#linear0);" d="M 74.796875 22.320312 L 74.75 22.234375 C 75.035156 22.324219 75.3125 22.441406 75.570312 22.585938 C 75.457031 21.675781 71.6875 19.109375 71.011719 19.109375 C 70.332031 19.109375 69.578125 18.023438 69.578125 18.023438 C 69.578125 18.023438 67.621094 17.742188 67.316406 17.445312 C 67.015625 17.148438 64.980469 17.320312 64.492188 17.425781 C 64 17.53125 63.246094 17.144531 63.246094 17.144531 C 63.246094 17.144531 62.832031 16.515625 62.304688 16.515625 C 61.78125 16.515625 61.214844 15.8125 61.214844 15.8125 C 61.214844 15.8125 60.722656 15.394531 60.269531 15.324219 C 59.820312 15.25 59.253906 14.796875 58.988281 14.445312 C 58.726562 14.09375 57.40625 13.921875 56.652344 14.027344 C 55.902344 14.128906 53.863281 13.882812 53.863281 13.882812 C 54.695312 13.53125 54.894531 12.691406 54.894531 12.691406 C 54.152344 12.652344 52.203125 11.132812 52.203125 11.132812 C 52.203125 11.132812 52.285156 11.625 52.375 12.308594 L 52.25 12.160156 L 52.234375 12.171875 C 52.195312 11.683594 52.1875 11.191406 52.21875 10.703125 C 52.21875 10.664062 52.222656 10.625 52.226562 10.589844 C 53.210938 9.789062 53.632812 8.546875 53.328125 7.363281 C 53.308594 7.285156 53.285156 7.207031 53.257812 7.128906 C 53.402344 7.1875 53.554688 7.222656 53.710938 7.234375 L 53.789062 7.234375 C 53.980469 7.238281 54.160156 7.164062 54.285156 7.03125 C 54.308594 7.007812 54.328125 6.980469 54.34375 6.953125 C 54.347656 6.945312 54.347656 6.941406 54.351562 6.933594 C 54.367188 6.910156 54.378906 6.882812 54.386719 6.855469 C 54.390625 6.84375 54.390625 6.835938 54.394531 6.824219 C 54.398438 6.804688 54.40625 6.78125 54.40625 6.761719 C 54.40625 6.742188 54.40625 6.722656 54.40625 6.707031 C 54.40625 6.6875 54.40625 6.679688 54.40625 6.664062 C 54.402344 6.503906 54.363281 6.34375 54.292969 6.195312 C 54.175781 5.925781 54.003906 5.65625 54.019531 5.363281 C 54.019531 5.339844 54.023438 5.316406 54.027344 5.292969 C 54.058594 5.0625 54.1875 4.851562 54.265625 4.628906 L 54.265625 4.621094 C 54.277344 4.585938 54.285156 4.554688 54.292969 4.523438 C 54.296875 4.511719 54.300781 4.503906 54.304688 4.492188 C 54.3125 4.453125 54.316406 4.414062 54.320312 4.375 C 54.320312 4.375 54.320312 4.371094 54.320312 4.367188 C 54.351562 3.929688 53.96875 3.542969 53.539062 3.367188 C 53.152344 3.207031 52.707031 3.164062 52.355469 2.945312 C 51.953125 2.699219 51.730469 2.273438 51.429688 1.917969 C 50.996094 1.402344 50.316406 1.019531 49.621094 1.09375 C 49.195312 1.136719 48.804688 1.347656 48.378906 1.429688 C 47.730469 1.554688 47.046875 1.371094 46.402344 1.511719 C 46.246094 1.535156 46.101562 1.609375 46 1.722656 C 45.957031 1.777344 45.929688 1.84375 45.917969 1.910156 C 45.910156 1.976562 45.910156 2.039062 45.917969 2.101562 L 45.917969 2.109375 C 45.925781 2.167969 45.9375 2.226562 45.953125 2.289062 L 45.964844 2.324219 C 45.964844 2.335938 45.96875 2.347656 45.972656 2.359375 C 45.976562 2.375 45.988281 2.410156 45.992188 2.433594 C 46.007812 2.476562 46.015625 2.515625 46.027344 2.558594 L 46.027344 2.574219 C 46.039062 2.617188 46.046875 2.660156 46.054688 2.703125 C 46.074219 2.792969 46.085938 2.886719 46.09375 2.980469 C 46.117188 3.238281 46.058594 3.5 45.917969 3.726562 C 45.636719 4.148438 45.035156 4.332031 44.777344 4.769531 C 44.714844 4.875 44.675781 4.992188 44.664062 5.113281 C 44.65625 5.152344 44.65625 5.191406 44.65625 5.230469 L 44.65625 5.246094 C 44.65625 5.28125 44.65625 5.316406 44.667969 5.351562 C 44.667969 5.359375 44.667969 5.367188 44.667969 5.378906 C 44.671875 5.410156 44.679688 5.441406 44.691406 5.46875 C 44.691406 5.480469 44.695312 5.488281 44.699219 5.5 C 44.710938 5.535156 44.726562 5.570312 44.742188 5.605469 C 44.863281 5.839844 45.09375 6.03125 45.140625 6.285156 C 45.140625 6.292969 45.140625 6.300781 45.144531 6.308594 C 45.171875 6.5 45.085938 6.6875 45.042969 6.875 C 45.039062 6.898438 45.03125 6.921875 45.03125 6.945312 C 45.03125 6.953125 45.03125 6.960938 45.03125 6.964844 C 45.03125 6.972656 45.03125 7 45.03125 7.015625 C 45.03125 7.03125 45.03125 7.03125 45.03125 7.042969 C 45.03125 7.050781 45.03125 7.070312 45.03125 7.085938 C 45.027344 7.09375 45.027344 7.105469 45.03125 7.113281 C 45.03125 7.128906 45.03125 7.140625 45.03125 7.152344 C 45.03125 7.167969 45.03125 7.171875 45.03125 7.183594 C 45.03125 7.191406 45.035156 7.207031 45.042969 7.222656 L 45.050781 7.246094 C 45.054688 7.257812 45.058594 7.273438 45.066406 7.285156 L 45.078125 7.308594 C 45.085938 7.320312 45.097656 7.332031 45.105469 7.34375 C 45.109375 7.347656 45.117188 7.355469 45.121094 7.359375 C 45.136719 7.378906 45.152344 7.390625 45.171875 7.40625 C 45.328125 7.511719 45.570312 7.484375 45.699219 7.617188 C 45.714844 7.632812 45.726562 7.648438 45.734375 7.667969 L 45.742188 7.679688 C 45.75 7.699219 45.757812 7.71875 45.761719 7.738281 C 45.78125 7.816406 45.78125 7.898438 45.761719 7.976562 C 45.71875 8.1875 45.621094 8.378906 45.570312 8.585938 C 45.5625 8.628906 45.554688 8.671875 45.546875 8.714844 C 45.546875 8.734375 45.546875 8.753906 45.542969 8.769531 L 45.542969 8.785156 C 45.542969 8.800781 45.542969 8.820312 45.542969 8.839844 C 45.542969 8.855469 45.542969 8.847656 45.542969 8.851562 C 45.542969 8.878906 45.542969 8.90625 45.550781 8.933594 C 45.554688 8.960938 45.550781 8.957031 45.554688 8.96875 L 45.5625 9 C 45.5625 9.011719 45.570312 9.027344 45.574219 9.039062 L 45.585938 9.066406 C 45.589844 9.082031 45.597656 9.097656 45.605469 9.109375 C 45.609375 9.117188 45.613281 9.125 45.617188 9.132812 C 45.628906 9.152344 45.644531 9.171875 45.660156 9.191406 C 45.796875 9.363281 46.019531 9.421875 46.257812 9.421875 C 46.390625 9.421875 46.527344 9.410156 46.65625 9.382812 C 46.6875 9.445312 46.71875 9.507812 46.75 9.570312 C 46.914062 9.878906 47.128906 10.160156 47.386719 10.402344 C 47.386719 10.4375 47.378906 10.46875 47.375 10.5 C 47.347656 10.742188 47.316406 10.996094 47.28125 11.257812 C 46.988281 11.132812 46.761719 11.082031 46.671875 11.175781 C 46.292969 11.5625 46.671875 12.894531 46.671875 12.894531 C 46.671875 12.894531 44.824219 12.894531 44.371094 13.28125 C 43.921875 13.664062 43.09375 13.28125 43.09375 13.28125 C 43.09375 13.28125 41.398438 13.457031 41.507812 13.773438 C 41.621094 14.089844 40.605469 13.773438 40.605469 13.773438 C 40.605469 13.773438 39.886719 13.84375 39.925781 14.296875 C 39.964844 14.753906 38.832031 14.964844 38.984375 15.28125 C 39.132812 15.597656 38.304688 15.804688 38.304688 15.804688 C 38.304688 15.804688 37.476562 15.769531 37.777344 16.226562 C 37.777344 16.226562 37.328125 17.207031 36.949219 17.273438 C 36.574219 17.34375 36.082031 18.152344 36.082031 18.152344 C 36.082031 18.152344 34.632812 18.398438 34.699219 18.820312 C 34.761719 19.242188 32.464844 22.253906 32.464844 22.253906 C 32.464844 22.253906 31.710938 23.699219 32.238281 24.75 C 32.769531 25.804688 33.144531 26.507812 33.257812 26.890625 C 33.371094 27.277344 34.742188 28.972656 34.730469 29.289062 C 34.730469 29.390625 35.066406 29.921875 35.53125 30.59375 L 35.394531 30.726562 L 35.097656 31.011719 C 35.097656 31.011719 34.15625 33.1875 35.285156 33.292969 C 36.242188 33.378906 36.925781 33.445312 37.273438 33.355469 C 37.332031 33.34375 37.386719 33.320312 37.433594 33.292969 L 37.445312 33.28125 C 37.859375 33.847656 38.148438 34.238281 38.148438 34.238281 C 38.148438 34.238281 38.191406 34.183594 38.261719 34.089844 L 38.375 34.238281 C 38.375 34.238281 38.464844 34.117188 38.621094 33.921875 C 38.570312 34.878906 38.5625 35.820312 38.5625 35.820312 C 38.5625 35.820312 39.054688 35.75 38.828125 37.855469 C 38.601562 39.960938 40.183594 41.679688 40.183594 41.679688 L 40.183594 44.804688 C 40.183594 44.804688 40.183594 44.882812 40.199219 45.015625 C 40.242188 45.464844 40.378906 46.519531 40.789062 47.21875 C 41.316406 48.132812 40.789062 50.519531 40.789062 50.519531 C 40.789062 50.519531 40.753906 52.464844 40.878906 54.894531 C 40.878906 54.960938 40.886719 55.027344 40.890625 55.097656 C 38.605469 56.871094 36.152344 59.222656 36.152344 59.222656 C 36.273438 59.253906 36.386719 59.304688 36.492188 59.367188 L 36.355469 59.527344 L 35.730469 60.242188 L 35.25 60.792969 L 36.011719 62.976562 L 36.847656 62.675781 C 36.847656 62.675781 37.296875 63.402344 37.203125 63.898438 C 37.1875 63.984375 37.148438 64.070312 37.089844 64.140625 C 37.0625 64.175781 37.042969 64.21875 37.03125 64.261719 C 36.8125 65.054688 37.722656 68.464844 39.167969 68.613281 C 39.167969 68.613281 39.65625 68.761719 39.8125 68.351562 C 39.890625 68.15625 39.886719 67.828125 39.71875 67.292969 C 39.71875 67.292969 38.957031 66.441406 39.449219 65.519531 C 39.738281 64.980469 40.21875 64.257812 40.5625 63.75 L 40.707031 63.539062 C 41.015625 63.902344 41.207031 64.136719 41.207031 64.136719 L 42.316406 63.027344 C 42.339844 63.074219 42.367188 63.121094 42.390625 63.164062 C 42.472656 63.320312 42.570312 63.46875 42.675781 63.609375 L 43.429688 66.382812 L 43.734375 66.320312 C 43.726562 66.386719 43.722656 66.457031 43.71875 66.53125 C 43.695312 67.027344 43.71875 67.671875 43.964844 68.136719 C 44.152344 68.488281 44.464844 68.734375 44.976562 68.722656 C 46.726562 68.683594 47.238281 67.800781 47.238281 67.800781 L 47.238281 65.59375 L 47.839844 65.46875 C 47.839844 65.46875 47.792969 60.625 47.640625 57.921875 C 47.640625 57.863281 47.632812 57.804688 47.628906 57.746094 C 47.628906 57.738281 47.628906 57.730469 47.628906 57.722656 L 51.5 53.855469 L 51.796875 53.746094 C 54.285156 52.835938 54.320312 50.484375 54.320312 50.484375 C 54.320312 50.484375 54.320312 49.183594 54.621094 48.097656 C 54.921875 47.007812 54.660156 41.355469 54.097656 39.953125 C 53.53125 38.550781 53.34375 36.96875 53.34375 36.96875 C 53.34375 36.96875 53.90625 36.234375 53.34375 35.621094 C 53.183594 35.4375 53.050781 35.234375 52.945312 35.019531 L 53.683594 34.90625 L 54.105469 34.84375 L 54.332031 34.808594 C 54.21875 35.734375 54.199219 36.449219 54.46875 36.617188 C 55.296875 37.144531 58.085938 35.390625 58.085938 35.390625 C 57.066406 35.390625 56.503906 28.335938 56.710938 28.160156 C 56.917969 27.984375 57.226562 24.449219 56.953125 23.820312 C 56.683594 23.1875 57.902344 20.375 57.902344 20.375 L 58.089844 20.117188 C 58.089844 20.117188 62.539062 21.917969 63.027344 22.265625 C 63.515625 22.609375 65.0625 21.425781 65.324219 21.882812 C 65.589844 22.34375 67.246094 23.027344 67.246094 23.027344 C 67.246094 23.027344 69.695312 22.796875 69.960938 23.359375 C 70.222656 23.921875 71.808594 25.238281 71.808594 25.238281 C 71.808594 24.929688 71.828125 24.621094 71.867188 24.3125 C 71.898438 24.386719 71.933594 24.460938 71.964844 24.535156 C 72.714844 26.183594 73.964844 28.273438 75.121094 27.148438 C 76.433594 25.871094 75.4375 23.511719 74.796875 22.320312 Z M 41.277344 29.777344 L 41.277344 29.796875 L 41.269531 29.789062 Z M 40.402344 21.683594 L 39.921875 26.378906 L 38.980469 27.285156 L 38.867188 27.394531 L 37.894531 26.410156 C 37.894531 26.410156 37.402344 26.203125 37.894531 25.816406 C 38.386719 25.429688 37.066406 24.554688 37.066406 24.554688 C 37.066406 24.554688 37.027344 23.925781 37.519531 23.75 C 38.007812 23.570312 38.648438 22.414062 38.648438 22.414062 L 40.417969 21.574219 Z M 46.703125 45.71875 C 46.738281 45.6875 46.777344 45.660156 46.816406 45.640625 C 47.03125 45.527344 47.164062 45.652344 47.234375 45.867188 C 47.328125 46.222656 47.300781 46.601562 47.15625 46.945312 C 46.890625 47.507812 47.53125 49.753906 47.53125 49.753906 C 47.53125 49.753906 46.703125 50.101562 46.550781 50.769531 C 46.53125 50.851562 46.492188 50.929688 46.4375 51 C 46.429688 50.941406 46.421875 50.882812 46.410156 50.832031 C 46.335938 50.410156 46.296875 50.140625 46.296875 50.140625 C 46.164062 49.597656 46.136719 49.039062 46.222656 48.488281 C 46.34375 47.816406 46.585938 46.441406 46.675781 45.921875 C 46.695312 45.796875 46.710938 45.722656 46.710938 45.714844 Z M 46.703125 45.71875 "/>
<path style=" stroke:none;fill-rule:nonzero;fill:rgb(27.45098%,26.27451%,32.54902%);fill-opacity:1;" d="M 51.960938 11.523438 L 52.203125 11.371094 L 52.890625 12.71875 L 52.628906 13.007812 L 51.828125 13.007812 C 51.828125 13.007812 51.855469 12.273438 51.875 12.246094 C 51.894531 12.222656 51.960938 11.523438 51.960938 11.523438 Z M 51.960938 11.523438 "/>
<path style=" stroke:none;fill-rule:nonzero;fill:rgb(24.705882%,23.921569%,33.72549%);fill-opacity:1;" d="M 47.234375 65.019531 L 47.234375 67.90625 C 47.234375 67.90625 46.722656 68.785156 44.972656 68.824219 C 44.535156 68.851562 44.132812 68.613281 43.960938 68.242188 C 43.71875 67.78125 43.691406 67.136719 43.714844 66.640625 C 43.726562 66.390625 43.753906 66.144531 43.800781 65.898438 Z M 47.234375 65.019531 "/>
<use xlink:href="#surface50" mask="url(#mask15)"/>
<path style=" stroke:none;fill-rule:nonzero;fill:rgb(31.764706%,30.588235%,49.803922%);fill-opacity:1;" d="M 47.835938 65.578125 L 43.425781 66.488281 L 42.675781 63.722656 C 42.566406 63.582031 42.46875 63.433594 42.386719 63.28125 C 42.339844 63.191406 42.289062 63.097656 42.246094 63 C 41.425781 61.257812 41.058594 58.109375 40.902344 55.433594 C 40.894531 55.296875 40.886719 55.164062 40.882812 55.03125 C 40.753906 52.609375 40.789062 50.664062 40.789062 50.664062 C 40.789062 50.664062 41.316406 48.285156 40.789062 47.375 C 40.382812 46.671875 40.246094 45.617188 40.203125 45.167969 C 40.191406 45.035156 40.1875 44.957031 40.1875 44.957031 L 40.269531 44.761719 L 40.601562 43.941406 L 44.257812 43.941406 L 46.382812 45.613281 L 46.703125 45.867188 L 46.667969 46.078125 C 46.578125 46.597656 46.335938 47.96875 46.214844 48.640625 C 46.132812 49.1875 46.15625 49.746094 46.292969 50.285156 C 46.292969 50.285156 46.335938 50.550781 46.40625 50.972656 C 46.421875 51.078125 46.441406 51.191406 46.464844 51.3125 C 46.734375 52.863281 47.238281 55.699219 47.457031 56.375 C 47.515625 56.5625 47.570312 57.027344 47.609375 57.660156 C 47.617188 57.785156 47.625 57.917969 47.632812 58.054688 C 47.792969 60.746094 47.835938 65.578125 47.835938 65.578125 Z M 47.835938 65.578125 "/>
<use xlink:href="#surface53" mask="url(#mask16)"/>
<path style=" stroke:none;fill-rule:nonzero;fill:rgb(63.137255%,38.039216%,41.568627%);fill-opacity:1;" d="M 75.117188 27.347656 C 73.957031 28.46875 72.710938 26.382812 71.960938 24.738281 C 71.539062 23.8125 71.273438 23.023438 71.273438 23.023438 L 74.367188 21.808594 C 74.367188 21.808594 74.558594 22.085938 74.796875 22.53125 C 75.4375 23.71875 76.433594 26.074219 75.117188 27.347656 Z M 75.117188 27.347656 "/>
<path style=" stroke:none;fill-rule:nonzero;fill:rgb(63.137255%,38.039216%,41.568627%);fill-opacity:1;" d="M 52.21875 10.941406 C 52.171875 11.980469 52.253906 13.023438 52.46875 14.042969 C 52.46875 14.042969 46.179688 14.671875 46.742188 13.765625 C 47.074219 13.230469 47.289062 11.820312 47.410156 10.746094 C 47.496094 9.984375 47.535156 9.386719 47.535156 9.386719 C 47.535156 9.386719 53.5625 7.148438 52.660156 9.039062 C 52.390625 9.601562 52.261719 10.269531 52.21875 10.941406 Z M 52.21875 10.941406 "/>
<path style=" stroke:none;fill-rule:nonzero;fill:rgb(27.45098%,26.27451%,32.54902%);fill-opacity:1;" d="M 52.75 25.980469 L 51.90625 35.363281 L 55.785156 34.769531 L 55.109375 27.03125 L 55.335938 24.964844 Z M 52.75 25.980469 "/>
<use xlink:href="#surface56" mask="url(#mask17)"/>
<path style=" stroke:none;fill-rule:nonzero;fill:rgb(24.705882%,23.921569%,33.72549%);fill-opacity:1;" d="M 39.445312 65.621094 C 38.953125 66.539062 39.714844 67.390625 39.714844 67.390625 C 39.886719 67.925781 39.886719 68.25 39.808594 68.441406 C 39.652344 68.851562 39.164062 68.699219 39.164062 68.699219 C 37.625 68.542969 36.691406 64.683594 37.085938 64.242188 C 37.484375 63.800781 36.847656 62.785156 36.847656 62.785156 L 36.011719 63.085938 L 35.25 60.90625 L 35.730469 60.355469 L 36.355469 59.644531 L 36.777344 59.160156 L 40.988281 63.242188 C 40.988281 63.242188 40.808594 63.496094 40.558594 63.855469 C 40.214844 64.359375 39.734375 65.085938 39.445312 65.621094 Z M 39.445312 65.621094 "/>
<use xlink:href="#surface59" mask="url(#mask18)"/>
<use xlink:href="#surface62" mask="url(#mask19)"/>
<use xlink:href="#surface65" mask="url(#mask20)"/>
<use xlink:href="#surface68" mask="url(#mask21)"/>
<path style=" stroke:none;fill-rule:nonzero;fill:rgb(31.764706%,30.588235%,49.803922%);fill-opacity:1;" d="M 54.617188 48.246094 C 54.316406 49.332031 54.316406 50.628906 54.316406 50.628906 C 54.316406 50.628906 54.277344 52.972656 51.792969 53.882812 L 51.496094 53.988281 L 41.207031 64.242188 C 41.207031 64.242188 37.402344 59.621094 36.15625 59.339844 C 36.15625 59.339844 41.167969 54.546875 43.542969 53.496094 C 43.542969 53.496094 46.40625 51.570312 46.558594 50.90625 C 46.707031 50.238281 47.539062 49.890625 47.539062 49.890625 C 47.539062 49.890625 46.898438 47.648438 47.160156 47.089844 C 47.304688 46.746094 47.332031 46.371094 47.242188 46.011719 C 47.171875 45.800781 47.035156 45.675781 46.824219 45.785156 C 46.78125 45.808594 46.746094 45.832031 46.710938 45.863281 L 40.191406 44.953125 L 40.191406 41.839844 C 40.191406 41.839844 38.609375 40.125 38.835938 38.023438 C 39.0625 35.925781 38.570312 35.996094 38.570312 35.996094 C 38.570312 35.996094 38.59375 32.445312 38.917969 32.152344 C 39.238281 31.855469 42.335938 30.496094 42.335938 30.496094 L 52.039062 32.097656 L 52.4375 33.824219 C 52.4375 33.824219 52.777344 35.195312 53.34375 35.804688 C 53.90625 36.414062 53.34375 37.148438 53.34375 37.148438 C 53.34375 37.148438 53.53125 38.722656 54.097656 40.125 C 54.664062 41.527344 54.917969 47.164062 54.617188 48.246094 Z M 54.617188 48.246094 "/>
<use xlink:href="#surface71" mask="url(#mask22)"/>
<path style=" stroke:none;fill-rule:nonzero;fill:rgb(63.137255%,38.039216%,41.568627%);fill-opacity:1;" d="M 53.429688 8.378906 C 53.429688 10.101562 51.984375 11.527344 50.128906 11.628906 C 48.277344 11.726562 46.664062 10.472656 46.445312 8.761719 C 46.226562 7.046875 47.484375 5.476562 49.308594 5.171875 C 51.136719 4.867188 52.898438 5.941406 53.332031 7.617188 C 53.398438 7.867188 53.429688 8.121094 53.429688 8.378906 Z M 53.429688 8.378906 "/>
<use xlink:href="#surface74" mask="url(#mask23)"/>
<use xlink:href="#surface77" mask="url(#mask24)"/>
<path style=" stroke:none;fill-rule:nonzero;fill:rgb(72.941176%,38.823529%,100%);fill-opacity:1;" d="M 54.730469 23.988281 C 54.617188 24.152344 54.449219 24.671875 54.257812 25.390625 C 54.121094 25.890625 53.976562 26.488281 53.832031 27.128906 C 53.164062 30.019531 52.433594 33.824219 52.433594 33.824219 C 52.433594 33.824219 52.386719 33.695312 52.058594 33.652344 C 51.796875 33.617188 51.34375 33.636719 50.589844 33.824219 C 48.894531 34.246094 41.054688 31.128906 41.054688 31.128906 L 41.28125 30.183594 L 42.527344 24.933594 C 42.527344 24.933594 47.765625 12.46875 47.914062 12.609375 C 48.007812 12.695312 48.984375 13.132812 49.730469 13.460938 C 50.207031 13.671875 50.589844 13.832031 50.589844 13.832031 L 52.171875 12.671875 L 52.261719 12.609375 L 54.210938 14.988281 C 54.210938 14.988281 55.296875 23.179688 54.730469 23.988281 Z M 54.730469 23.988281 "/>
<use xlink:href="#surface80" mask="url(#mask25)"/>
<path style=" stroke:none;fill-rule:nonzero;fill:rgb(27.45098%,26.27451%,32.54902%);fill-opacity:1;" d="M 48.515625 15.058594 C 48.738281 15.867188 48.214844 17.195312 48.214844 17.195312 C 48.214844 17.195312 46.40625 21.328125 45.875 23.234375 C 45.347656 25.144531 42.328125 28.992188 42.328125 28.992188 C 42.328125 28.992188 41.886719 29.40625 41.265625 29.980469 C 41.191406 30.050781 41.113281 30.121094 41.039062 30.191406 C 39.828125 31.3125 38.125 32.882812 37.589844 33.339844 C 37.511719 33.410156 37.460938 33.453125 37.4375 33.46875 C 37.390625 33.5 37.335938 33.519531 37.28125 33.53125 C 36.929688 33.621094 36.246094 33.558594 35.289062 33.46875 C 34.160156 33.363281 35.101562 31.195312 35.101562 31.195312 L 35.398438 30.910156 L 35.671875 30.648438 L 38.75 27.703125 L 38.976562 27.484375 L 39.917969 26.582031 L 40.398438 21.898438 L 40.410156 21.785156 C 40.410156 21.785156 40.269531 21.488281 40.050781 21.035156 C 39.476562 19.804688 38.347656 17.4375 37.933594 16.671875 C 37.886719 16.582031 37.847656 16.515625 37.820312 16.472656 C 37.820312 16.46875 37.8125 16.464844 37.8125 16.460938 C 37.507812 16.003906 38.335938 16.039062 38.335938 16.039062 C 38.335938 16.039062 39.167969 15.828125 39.015625 15.515625 C 38.863281 15.199219 39.996094 14.988281 39.957031 14.535156 C 39.921875 14.078125 40.636719 14.007812 40.636719 14.007812 C 40.636719 14.007812 41.652344 14.324219 41.542969 14.007812 C 41.429688 13.695312 43.125 13.519531 43.125 13.519531 C 43.125 13.519531 43.953125 13.902344 44.40625 13.519531 C 44.855469 13.132812 46.710938 13.132812 46.710938 13.132812 C 46.710938 13.132812 46.332031 11.804688 46.710938 11.417969 C 47.089844 11.03125 49.929688 13.132812 49.929688 13.132812 C 49.929688 13.132812 48.289062 14.253906 48.515625 15.058594 Z M 48.515625 15.058594 "/>
<use xlink:href="#surface83" mask="url(#mask26)"/>
<path style=" stroke:none;fill-rule:nonzero;fill:rgb(63.137255%,38.039216%,41.568627%);fill-opacity:1;" d="M 39.09375 32.773438 C 39.09375 32.773438 42.222656 36.871094 44.40625 35.539062 C 46.59375 34.210938 41.46875 30.742188 41.46875 30.742188 Z M 39.09375 32.773438 "/>
<use xlink:href="#surface86" mask="url(#mask27)"/>
<path style=" stroke:none;fill-rule:nonzero;fill:rgb(27.45098%,26.27451%,32.54902%);fill-opacity:1;" d="M 52.203125 11.371094 C 52.203125 11.371094 54.152344 12.886719 54.894531 12.921875 C 54.894531 12.921875 54.695312 13.761719 53.863281 14.113281 C 53.863281 14.113281 55.898438 14.363281 56.652344 14.253906 C 57.40625 14.148438 58.726562 14.324219 58.988281 14.675781 C 59.253906 15.027344 59.824219 15.480469 60.277344 15.546875 C 60.730469 15.617188 61.222656 16.039062 61.222656 16.039062 L 57.902344 20.589844 C 57.902344 20.589844 56.695312 23.390625 56.960938 24.019531 C 57.222656 24.652344 56.921875 28.1875 56.714844 28.363281 C 56.507812 28.535156 57.074219 35.574219 58.089844 35.574219 C 58.089844 35.574219 55.304688 37.324219 54.472656 36.800781 C 53.644531 36.273438 55.527344 30.605469 54.699219 29.308594 C 53.871094 28.011719 53.683594 23.234375 53.683594 23.234375 C 53.683594 23.234375 52.324219 17.613281 52.589844 16.460938 C 52.855469 15.304688 52.203125 11.371094 52.203125 11.371094 Z M 52.203125 11.371094 "/>
<use xlink:href="#surface89" mask="url(#mask28)"/>
<path style=" stroke:none;fill-rule:nonzero;fill:rgb(27.45098%,26.27451%,32.54902%);fill-opacity:1;" d="M 59.371094 15.828125 L 61.222656 16.039062 C 61.222656 16.039062 61.785156 16.738281 62.3125 16.738281 C 62.835938 16.738281 63.253906 17.371094 63.253906 17.371094 C 63.253906 17.371094 64.007812 17.753906 64.496094 17.648438 C 64.988281 17.542969 67.019531 17.371094 67.324219 17.667969 C 67.625 17.964844 69.582031 18.246094 69.582031 18.246094 C 69.582031 18.246094 70.339844 19.328125 71.015625 19.328125 C 71.695312 19.328125 75.460938 21.886719 75.574219 22.796875 C 75.574219 22.796875 71.84375 20.589844 71.808594 25.4375 C 71.808594 25.4375 70.226562 24.125 69.960938 23.566406 C 69.695312 23.007812 67.246094 23.234375 67.246094 23.234375 C 67.246094 23.234375 65.589844 22.550781 65.324219 22.097656 C 65.0625 21.640625 63.515625 22.820312 63.027344 22.476562 C 62.539062 22.128906 58.089844 20.332031 58.089844 20.332031 L 56.714844 17.929688 Z M 59.371094 15.828125 "/>
<path style=" stroke:none;fill-rule:nonzero;fill:rgb(24.705882%,23.921569%,33.72549%);fill-opacity:1;" d="M 51.171875 19.785156 C 51.171875 19.949219 51.027344 20.082031 50.851562 20.082031 C 50.671875 20.082031 50.53125 19.949219 50.53125 19.785156 C 50.53125 19.621094 50.671875 19.488281 50.851562 19.488281 C 51.027344 19.488281 51.171875 19.621094 51.171875 19.785156 Z M 51.171875 19.785156 "/>
<path style=" stroke:none;fill-rule:nonzero;fill:rgb(24.705882%,23.921569%,33.72549%);fill-opacity:1;" d="M 50.851562 25.992188 C 50.851562 26.15625 50.707031 26.289062 50.53125 26.289062 C 50.355469 26.289062 50.210938 26.15625 50.210938 25.992188 C 50.210938 25.828125 50.355469 25.695312 50.53125 25.695312 C 50.707031 25.695312 50.851562 25.828125 50.851562 25.992188 Z M 50.851562 25.992188 "/>
<path style=" stroke:none;fill-rule:nonzero;fill:rgb(24.705882%,23.921569%,33.72549%);fill-opacity:1;" d="M 51.171875 22.726562 C 51.171875 22.890625 51.027344 23.023438 50.851562 23.023438 C 50.671875 23.023438 50.53125 22.890625 50.53125 22.726562 C 50.53125 22.5625 50.671875 22.429688 50.851562 22.429688 C 51.027344 22.429688 51.171875 22.5625 51.171875 22.726562 Z M 51.171875 22.726562 "/>
<path style=" stroke:none;fill-rule:nonzero;fill:rgb(24.705882%,23.921569%,33.72549%);fill-opacity:1;" d="M 50.246094 29.257812 C 50.246094 29.421875 50.101562 29.554688 49.925781 29.554688 C 49.75 29.554688 49.605469 29.421875 49.605469 29.257812 C 49.605469 29.09375 49.75 28.960938 49.925781 28.960938 C 50.101562 28.960938 50.246094 29.09375 50.246094 29.257812 Z M 50.246094 29.257812 "/>
<use xlink:href="#surface92" mask="url(#mask29)"/>
<use xlink:href="#surface95" mask="url(#mask30)"/>
<path style=" stroke:none;fill-rule:nonzero;fill:rgb(27.45098%,26.27451%,32.54902%);fill-opacity:1;" d="M 50.15625 6.296875 C 50.476562 6.40625 50.824219 6.492188 51.15625 6.417969 C 51.441406 6.359375 51.742188 6.183594 52 6.3125 C 52.226562 6.425781 52.273438 6.699219 52.414062 6.894531 C 52.570312 7.105469 52.84375 7.222656 53.105469 7.316406 C 53.296875 7.398438 53.503906 7.453125 53.71875 7.476562 C 53.933594 7.496094 54.148438 7.421875 54.292969 7.273438 C 54.496094 7.046875 54.433594 6.710938 54.316406 6.4375 C 54.195312 6.167969 54.027344 5.902344 54.039062 5.609375 C 54.054688 5.261719 54.324219 4.960938 54.34375 4.613281 C 54.375 4.175781 53.992188 3.792969 53.5625 3.617188 C 53.175781 3.457031 52.734375 3.414062 52.378906 3.195312 C 51.976562 2.953125 51.753906 2.523438 51.457031 2.171875 C 51.023438 1.660156 50.34375 1.273438 49.648438 1.347656 C 49.21875 1.394531 48.832031 1.601562 48.402344 1.683594 C 47.757812 1.808594 47.070312 1.625 46.425781 1.765625 C 46.269531 1.789062 46.128906 1.859375 46.023438 1.96875 C 45.867188 2.167969 45.949219 2.445312 46.019531 2.679688 C 46.144531 3.109375 46.195312 3.59375 45.945312 3.96875 C 45.664062 4.394531 45.0625 4.574219 44.800781 5.011719 C 44.648438 5.269531 44.640625 5.582031 44.777344 5.851562 C 44.902344 6.09375 45.140625 6.289062 45.179688 6.554688 C 45.203125 6.746094 45.121094 6.933594 45.074219 7.117188 C 45.03125 7.304688 45.042969 7.539062 45.210938 7.644531 C 45.375 7.75 45.609375 7.722656 45.738281 7.855469 C 45.816406 7.960938 45.835938 8.09375 45.796875 8.214844 C 45.753906 8.425781 45.65625 8.617188 45.605469 8.820312 C 45.539062 9.027344 45.570312 9.246094 45.691406 9.425781 C 45.910156 9.703125 46.355469 9.6875 46.710938 9.613281 C 46.8125 9.597656 46.910156 9.5625 46.996094 9.507812 C 47.222656 9.347656 47.183594 9.035156 47.238281 8.78125 C 47.359375 8.203125 48.015625 7.828125 48.167969 7.257812 C 48.265625 6.890625 48.117188 6.371094 48.5 6.128906 C 49 5.828125 49.675781 6.132812 50.15625 6.296875 Z M 50.15625 6.296875 "/>
<use xlink:href="#surface98" mask="url(#mask31)"/>
<use xlink:href="#surface101" mask="url(#mask32)"/>
<use xlink:href="#surface104" mask="url(#mask33)"/>
<use xlink:href="#surface107" mask="url(#mask34)"/>
<use xlink:href="#surface110" mask="url(#mask35)"/>
<use xlink:href="#surface113" mask="url(#mask36)"/>
<use xlink:href="#surface116" mask="url(#mask37)"/>
<use xlink:href="#surface119" mask="url(#mask38)"/>
<use xlink:href="#surface122" mask="url(#mask39)"/>
<use xlink:href="#surface125" mask="url(#mask40)"/>
<use xlink:href="#surface128" mask="url(#mask41)"/>
<use xlink:href="#surface131" mask="url(#mask42)"/>
<use xlink:href="#surface134" mask="url(#mask43)"/>
<use xlink:href="#surface137" mask="url(#mask44)"/>
<path style=" stroke:none;fill-rule:nonzero;fill:rgb(27.45098%,26.27451%,32.54902%);fill-opacity:1;" d="M 39.507812 16.5625 L 37.8125 16.460938 C 37.8125 16.460938 37.359375 17.4375 36.984375 17.507812 C 36.609375 17.578125 36.117188 18.382812 36.117188 18.382812 C 36.117188 18.382812 34.664062 18.628906 34.730469 19.050781 C 34.792969 19.46875 32.496094 22.476562 32.496094 22.476562 C 32.496094 22.476562 31.742188 23.917969 32.273438 24.964844 C 32.800781 26.015625 33.175781 26.71875 33.289062 27.101562 C 33.402344 27.484375 34.742188 29.167969 34.730469 29.484375 C 34.71875 29.796875 38.148438 34.417969 38.148438 34.417969 C 38.148438 34.417969 40.675781 31.058594 42.03125 30.882812 C 42.03125 30.882812 40.523438 29.585938 40.523438 29.378906 C 40.523438 29.167969 39.363281 28.082031 39.363281 28.082031 L 37.894531 26.613281 C 37.894531 26.613281 37.402344 26.402344 37.894531 26.015625 C 38.386719 25.632812 37.066406 24.757812 37.066406 24.757812 C 37.066406 24.757812 37.027344 24.125 37.519531 23.949219 C 38.007812 23.777344 38.648438 22.621094 38.648438 22.621094 L 40.417969 21.78125 Z M 39.507812 16.5625 "/>
<use xlink:href="#surface140" mask="url(#mask45)"/>
<use xlink:href="#surface143" mask="url(#mask46)"/>
<use xlink:href="#surface146" mask="url(#mask47)"/>
<use xlink:href="#surface149" mask="url(#mask48)"/>
<path style=" stroke:none;fill-rule:nonzero;fill:rgb(72.941176%,38.823529%,100%);fill-opacity:1;" d="M 18.972656 62.386719 C 18.972656 62.386719 14.296875 62.125 14.847656 65.167969 C 14.847656 65.167969 14.734375 65.707031 15.265625 65.953125 C 15.265625 65.953125 15.273438 65.726562 15.742188 65.800781 C 15.910156 65.828125 16.082031 65.835938 16.25 65.824219 C 16.480469 65.808594 16.699219 65.726562 16.871094 65.585938 C 16.871094 65.585938 18.1875 65.082031 18.699219 63.085938 C 18.699219 63.085938 19.074219 62.648438 19.0625 62.539062 L 18.269531 62.855469 C 18.269531 62.855469 18.539062 63.378906 18.328125 63.824219 C 18.328125 63.824219 18.300781 62.878906 18.148438 62.894531 C 18.121094 62.898438 17.738281 63.078125 17.738281 63.078125 C 17.738281 63.078125 18.203125 64 17.851562 64.667969 C 17.851562 64.667969 17.988281 63.535156 17.59375 63.144531 L 17.039062 63.445312 C 17.039062 63.445312 17.582031 64.398438 17.214844 65.175781 C 17.214844 65.175781 17.308594 63.984375 16.921875 63.519531 L 16.417969 63.882812 C 16.417969 63.882812 16.929688 64.820312 16.617188 65.46875 C 16.617188 65.46875 16.578125 64.078125 16.308594 63.976562 C 16.308594 63.976562 15.867188 64.335938 15.800781 64.484375 C 15.800781 64.484375 16.152344 65.164062 15.933594 65.523438 C 15.933594 65.523438 15.800781 64.601562 15.691406 64.597656 C 15.691406 64.597656 15.253906 65.207031 15.207031 65.628906 C 15.207031 65.628906 15.226562 65.003906 15.585938 64.539062 C 15.332031 64.582031 15.101562 64.695312 14.914062 64.859375 C 14.914062 64.859375 14.984375 64.429688 15.695312 64.390625 C 15.695312 64.390625 16.058594 63.925781 16.15625 63.898438 C 16.15625 63.898438 15.445312 63.84375 15.019531 64.019531 C 15.019531 64.019531 15.394531 63.613281 16.285156 63.796875 L 16.78125 63.421875 C 16.78125 63.421875 15.851562 63.300781 15.453125 63.433594 C 15.453125 63.433594 15.90625 63.070312 16.914062 63.335938 L 17.457031 63.035156 C 17.457031 63.035156 16.664062 62.875 16.1875 62.929688 C 16.1875 62.929688 16.6875 62.679688 17.613281 62.949219 L 18.003906 62.789062 C 18.003906 62.789062 17.421875 62.683594 17.25 62.664062 C 17.078125 62.648438 17.070312 62.605469 17.070312 62.605469 C 17.4375 62.546875 17.816406 62.585938 18.164062 62.71875 C 18.164062 62.71875 18.988281 62.433594 18.972656 62.386719 Z M 18.972656 62.386719 "/>
<use xlink:href="#surface152" mask="url(#mask49)"/>
</g>
</svg>
