<?xml version="1.0" encoding="UTF-8"?>
<svg xmlns="http://www.w3.org/2000/svg" xmlns:xlink="http://www.w3.org/1999/xlink" width="130pt" height="71pt" viewBox="0 0 130 71" version="1.1">
<defs>
<filter id="alpha" filterUnits="objectBoundingBox" x="0%" y="0%" width="100%" height="100%">
  <feColorMatrix type="matrix" in="SourceGraphic" values="0 0 0 0 1 0 0 0 0 1 0 0 0 0 1 0 0 0 1 0"/>
</filter>
<mask id="mask0">
  <g filter="url(#alpha)">
<rect x="0" y="0" width="130" height="71" style="fill:rgb(0%,0%,0%);fill-opacity:0.2;stroke:none;"/>
  </g>
</mask>
<clipPath id="clip1">
  <rect x="0" y="0" width="130" height="71"/>
</clipPath>
<g id="surface5" clip-path="url(#clip1)">
<path style=" stroke:none;fill-rule:nonzero;fill:rgb(0%,0%,0%);fill-opacity:1;" d="M 106.5625 29.683594 C 106.5625 29.683594 112.980469 35.621094 108.394531 38.320312 C 103.808594 41.019531 101.242188 42.714844 101.242188 42.714844 C 101.242188 42.714844 101.515625 31.070312 106.5625 29.683594 Z M 106.5625 29.683594 "/>
</g>
<mask id="mask1">
  <g filter="url(#alpha)">
<rect x="0" y="0" width="130" height="71" style="fill:rgb(0%,0%,0%);fill-opacity:0.2;stroke:none;"/>
  </g>
</mask>
<clipPath id="clip2">
  <rect x="0" y="0" width="130" height="71"/>
</clipPath>
<g id="surface8" clip-path="url(#clip2)">
<path style=" stroke:none;fill-rule:nonzero;fill:rgb(0%,0%,0%);fill-opacity:1;" d="M 104.070312 35.621094 L 100.109375 37.957031 C 100.058594 37.542969 100.011719 37.136719 99.976562 36.730469 L 102.65625 28.21875 Z M 104.070312 35.621094 "/>
</g>
<mask id="mask2">
  <g filter="url(#alpha)">
<rect x="0" y="0" width="130" height="71" style="fill:rgb(0%,0%,0%);fill-opacity:0.2;stroke:none;"/>
  </g>
</mask>
<clipPath id="clip3">
  <rect x="0" y="0" width="130" height="71"/>
</clipPath>
<g id="surface11" clip-path="url(#clip3)">
<path style=" stroke:none;fill-rule:nonzero;fill:rgb(0%,0%,0%);fill-opacity:1;" d="M 28.78125 40.429688 L 35.789062 40.429688 L 32.347656 36.882812 L 32.101562 36.628906 L 31.976562 36.5 L 31.664062 36.882812 Z M 28.78125 40.429688 "/>
</g>
</defs>
<g id="surface1">
<path style=" stroke:none;fill-rule:nonzero;fill:rgb(24.705882%,23.921569%,33.72549%);fill-opacity:1;" d="M 81.0625 69.421875 L 130.042969 69.421875 L 130.042969 69.660156 L 81.0625 69.660156 Z M 81.0625 69.421875 "/>
<path style=" stroke:none;fill-rule:nonzero;fill:rgb(62.745098%,38.039216%,41.568627%);fill-opacity:1;" d="M 105.660156 70.042969 L 100.347656 69.453125 L 102.535156 67.824219 L 105.660156 67.824219 Z M 105.660156 70.042969 "/>
<path style=" stroke:none;fill-rule:nonzero;fill:rgb(18.431373%,18.039216%,25.490196%);fill-opacity:1;" d="M 104.640625 70.941406 L 99.386719 69.714844 C 99.105469 69.648438 98.875 69.5 98.761719 69.304688 C 98.648438 69.109375 98.660156 68.890625 98.792969 68.699219 C 98.976562 68.4375 99.363281 68.28125 99.773438 68.300781 L 100.96875 68.359375 L 101.433594 68.171875 C 101.535156 68.132812 101.660156 68.140625 101.746094 68.195312 C 101.835938 68.25 101.863281 68.335938 101.820312 68.414062 L 101.386719 69.15625 L 105.765625 68.933594 L 105.980469 70.160156 C 106.023438 70.40625 105.886719 70.652344 105.613281 70.8125 C 105.34375 70.96875 104.976562 71.019531 104.640625 70.941406 Z M 104.640625 70.941406 "/>
<path style=" stroke:none;fill-rule:nonzero;fill:rgb(62.745098%,38.039216%,41.568627%);fill-opacity:1;" d="M 120.125 68.1875 L 114.601562 69.21875 C 115.621094 67.722656 116.246094 66.398438 115.851562 65.523438 L 118.457031 65.300781 Z M 120.125 68.1875 "/>
<path style=" stroke:none;fill-rule:nonzero;fill:rgb(18.431373%,18.039216%,25.490196%);fill-opacity:1;" d="M 119.785156 69.5 L 114.070312 69.761719 C 113.765625 69.777344 113.464844 69.695312 113.25 69.539062 C 113.035156 69.382812 112.925781 69.171875 112.949219 68.953125 C 112.984375 68.652344 113.269531 68.394531 113.675781 68.300781 L 114.851562 68.027344 L 115.199219 67.722656 C 115.273438 67.65625 115.398438 67.628906 115.511719 67.65625 C 115.625 67.6875 115.699219 67.761719 115.699219 67.847656 L 115.691406 68.679688 L 119.769531 67.265625 L 120.644531 68.382812 C 120.820312 68.609375 120.824219 68.882812 120.648438 69.109375 C 120.472656 69.335938 120.148438 69.484375 119.785156 69.5 Z M 119.785156 69.5 "/>
<path style=" stroke:none;fill-rule:nonzero;fill:rgb(62.745098%,38.039216%,41.568627%);fill-opacity:1;" d="M 105.558594 19.914062 C 105.558594 21.425781 103.832031 22.648438 101.703125 22.648438 C 99.574219 22.648438 97.847656 21.425781 97.847656 19.914062 C 97.847656 18.402344 99.574219 17.179688 101.703125 17.179688 C 103.832031 17.179688 105.558594 18.402344 105.558594 19.914062 Z M 105.558594 19.914062 "/>
<path style=" stroke:none;fill-rule:nonzero;fill:rgb(62.745098%,38.039216%,41.568627%);fill-opacity:1;" d="M 107.820312 23.476562 L 103.363281 25.867188 C 102.644531 23.914062 101.777344 22.523438 100.644531 22.164062 L 105.101562 20.3125 Z M 107.820312 23.476562 "/>
<path style=" stroke:none;fill-rule:nonzero;fill:rgb(18.431373%,18.039216%,25.490196%);fill-opacity:1;" d="M 119.339844 65.273438 L 115.535156 66.429688 L 106.730469 51.699219 L 106.027344 68.085938 L 102.222656 67.933594 L 97.984375 42.253906 L 98.308594 40.789062 L 112.710938 43.0625 L 112.925781 51.316406 Z M 119.339844 65.273438 "/>
<path style=" stroke:none;fill-rule:nonzero;fill:rgb(18.431373%,18.039216%,25.490196%);fill-opacity:1;" d="M 97.332031 19.117188 C 97.332031 19.117188 99.832031 17.5 100.589844 18.195312 C 101.351562 18.886719 101.570312 19.042969 102.003906 19.042969 C 102.4375 19.042969 103.527344 19.890625 103.527344 19.890625 C 103.527344 19.890625 104.070312 19.117188 104.722656 19.734375 C 105.375 20.351562 105.480469 21.277344 105.480469 21.277344 C 105.480469 21.277344 107.875 17.34375 103.632812 16.574219 C 99.394531 15.804688 96.351562 18.195312 97.332031 19.117188 Z M 97.332031 19.117188 "/>
<path style=" stroke:none;fill-rule:nonzero;fill:rgb(90.196078%,90.196078%,90.196078%);fill-opacity:1;" d="M 113.6875 44.296875 C 111.625 43.65625 111.5625 44.160156 108.578125 44.992188 C 104.824219 45.320312 102.4375 45.363281 101.242188 44.257812 C 100.753906 42.0625 100.355469 39.957031 100.109375 37.957031 C 100.058594 37.542969 100.011719 37.136719 99.976562 36.730469 C 99.542969 32.019531 100.074219 27.925781 102.492188 24.632812 L 106.839844 22.320312 L 108.257812 23.050781 C 111.648438 24.792969 111.121094 27.472656 111.570312 30.425781 Z M 113.6875 44.296875 "/>
<path style=" stroke:none;fill-rule:nonzero;fill:rgb(62.745098%,38.039216%,41.568627%);fill-opacity:1;" d="M 100.535156 43.601562 L 98.253906 42.214844 L 98.472656 40.828125 L 100.535156 40.828125 Z M 100.535156 43.601562 "/>
<use xlink:href="#surface5" mask="url(#mask0)"/>
<use xlink:href="#surface8" mask="url(#mask1)"/>
<path style=" stroke:none;fill-rule:nonzero;fill:rgb(90.196078%,90.196078%,90.196078%);fill-opacity:1;" d="M 101.1875 42.679688 L 98.035156 40.902344 L 102.167969 33.5 L 102.261719 25.785156 C 102.269531 25.046875 102.929688 24.390625 103.90625 24.144531 C 104.660156 23.953125 105.496094 24.035156 106.152344 24.355469 C 106.808594 24.679688 107.203125 25.210938 107.214844 25.777344 L 107.382812 34.734375 Z M 101.1875 42.679688 "/>
<path style=" stroke:none;fill-rule:nonzero;fill:rgb(90.196078%,90.196078%,90.196078%);fill-opacity:1;" d="M 0 59.007812 L 0 4.230469 C 0 3.734375 0.566406 3.332031 1.265625 3.328125 L 72.054688 3.328125 C 72.753906 3.332031 73.324219 3.734375 73.324219 4.230469 L 73.324219 59.007812 C 73.324219 59.503906 72.753906 59.90625 72.054688 59.90625 L 1.265625 59.90625 C 0.566406 59.90625 0 59.503906 0 59.007812 Z M 1.265625 3.691406 C 0.847656 3.691406 0.507812 3.929688 0.507812 4.230469 L 0.507812 59.007812 C 0.507812 59.308594 0.847656 59.546875 1.265625 59.546875 L 72.054688 59.546875 C 72.476562 59.546875 72.816406 59.308594 72.816406 59.007812 L 72.816406 4.230469 C 72.816406 3.929688 72.476562 3.691406 72.054688 3.691406 Z M 1.265625 3.691406 "/>
<path style=" stroke:none;fill-rule:nonzero;fill:rgb(24.705882%,23.921569%,33.72549%);fill-opacity:1;" d="M 49.25 8.902344 C 49.796875 8.910156 50.238281 9.226562 50.238281 9.617188 C 50.238281 10.003906 49.796875 10.324219 49.25 10.328125 L 24.0625 10.328125 C 23.507812 10.335938 23.050781 10.023438 23.042969 9.628906 C 23.03125 9.234375 23.476562 8.910156 24.03125 8.902344 C 24.039062 8.902344 24.050781 8.902344 24.0625 8.902344 Z M 49.25 8.902344 "/>
<path style=" stroke:none;fill-rule:nonzero;fill:rgb(90.196078%,90.196078%,90.196078%);fill-opacity:1;" d="M 18.351562 8.707031 C 18.425781 8.761719 18.425781 8.847656 18.351562 8.902344 L 17.5 9.503906 L 19.59375 9.503906 C 19.664062 9.503906 19.730469 9.53125 19.765625 9.574219 C 19.800781 9.621094 19.800781 9.671875 19.765625 9.714844 C 19.730469 9.757812 19.664062 9.785156 19.59375 9.785156 L 17.5 9.785156 L 18.351562 10.386719 C 18.402344 10.421875 18.421875 10.476562 18.402344 10.523438 C 18.382812 10.570312 18.332031 10.609375 18.261719 10.621094 C 18.195312 10.636719 18.121094 10.621094 18.070312 10.585938 L 16.886719 9.746094 C 16.808594 9.691406 16.808594 9.601562 16.886719 9.546875 L 18.070312 8.707031 C 18.148438 8.652344 18.273438 8.652344 18.351562 8.707031 Z M 18.351562 8.707031 "/>
<path style=" stroke:none;fill-rule:nonzero;fill:rgb(90.196078%,90.196078%,90.196078%);fill-opacity:1;" d="M 54.972656 8.707031 C 54.894531 8.761719 54.894531 8.847656 54.972656 8.902344 L 55.820312 9.503906 L 53.730469 9.503906 C 53.65625 9.503906 53.59375 9.53125 53.558594 9.574219 C 53.523438 9.621094 53.523438 9.671875 53.558594 9.714844 C 53.59375 9.757812 53.65625 9.785156 53.730469 9.785156 L 55.820312 9.785156 L 54.972656 10.386719 C 54.921875 10.421875 54.902344 10.476562 54.921875 10.523438 C 54.941406 10.570312 54.992188 10.609375 55.0625 10.621094 C 55.128906 10.636719 55.203125 10.621094 55.253906 10.585938 L 56.4375 9.746094 C 56.515625 9.691406 56.515625 9.601562 56.4375 9.546875 L 55.253906 8.707031 C 55.175781 8.652344 55.050781 8.652344 54.972656 8.707031 Z M 54.972656 8.707031 "/>
<path style=" stroke:none;fill-rule:nonzero;fill:rgb(90.196078%,90.196078%,90.196078%);fill-opacity:1;" d="M 22.664062 50.300781 C 20.675781 50.300781 19.0625 51.445312 19.0625 52.855469 C 19.0625 54.269531 20.675781 55.414062 22.664062 55.414062 L 50.65625 55.414062 C 52.648438 55.414062 54.261719 54.269531 54.261719 52.855469 C 54.261719 51.445312 52.648438 50.300781 50.65625 50.300781 Z M 22.664062 50.300781 "/>
<path style=" stroke:none;fill-rule:nonzero;fill:rgb(42.352941%,38.823529%,100%);fill-opacity:1;" d="M 66.375 4.109375 C 66.375 1.839844 68.96875 0 72.167969 0 C 75.363281 0 77.957031 1.839844 77.957031 4.109375 C 77.957031 6.378906 75.363281 8.214844 72.167969 8.214844 C 68.96875 8.214844 66.378906 6.375 66.375 4.109375 Z M 66.375 4.109375 "/>
<path style=" stroke:none;fill-rule:nonzero;fill:rgb(100%,100%,100%);fill-opacity:1;" d="M 69.882812 3.703125 L 71.59375 3.703125 L 71.59375 2.488281 C 71.59375 2.34375 71.703125 2.207031 71.878906 2.136719 C 72.058594 2.0625 72.273438 2.0625 72.453125 2.136719 C 72.628906 2.207031 72.738281 2.34375 72.738281 2.488281 L 72.738281 3.703125 L 74.449219 3.703125 C 74.765625 3.703125 75.019531 3.882812 75.019531 4.109375 C 75.019531 4.332031 74.765625 4.511719 74.449219 4.511719 L 72.738281 4.511719 L 72.738281 5.730469 C 72.738281 5.953125 72.480469 6.132812 72.167969 6.132812 C 71.851562 6.132812 71.59375 5.953125 71.59375 5.730469 L 71.59375 4.511719 L 69.882812 4.511719 C 69.675781 4.515625 69.488281 4.4375 69.386719 4.3125 C 69.285156 4.1875 69.285156 4.03125 69.386719 3.90625 C 69.488281 3.78125 69.675781 3.703125 69.882812 3.703125 Z M 69.882812 3.703125 "/>
<path style=" stroke:none;fill-rule:nonzero;fill:rgb(90.196078%,90.196078%,90.196078%);fill-opacity:1;" d="M 19.238281 41.476562 L 60.566406 17.449219 L 60.78125 17.632812 L 19.453125 41.660156 Z M 19.238281 41.476562 "/>
<path style=" stroke:none;fill-rule:nonzero;fill:rgb(90.196078%,90.196078%,90.196078%);fill-opacity:1;" d="M 19.246094 17.628906 L 19.460938 17.445312 L 60.773438 41.601562 L 60.558594 41.785156 Z M 19.246094 17.628906 "/>
<path style=" stroke:none;fill-rule:nonzero;fill:rgb(24.705882%,23.921569%,33.72549%);fill-opacity:1;" d="M 18.667969 41.089844 L 18.667969 17.953125 C 18.667969 17.492188 19.199219 17.117188 19.851562 17.113281 L 60.0625 17.113281 C 60.714844 17.117188 61.242188 17.492188 61.242188 17.953125 L 61.242188 41.089844 C 61.242188 41.550781 60.714844 41.925781 60.0625 41.929688 L 19.851562 41.929688 C 19.199219 41.925781 18.667969 41.550781 18.667969 41.089844 Z M 19.851562 17.355469 C 19.386719 17.355469 19.007812 17.625 19.007812 17.953125 L 19.007812 41.089844 C 19.007812 41.417969 19.386719 41.6875 19.851562 41.6875 L 60.0625 41.6875 C 60.527344 41.6875 60.90625 41.417969 60.90625 41.089844 L 60.90625 17.953125 C 60.90625 17.625 60.527344 17.355469 60.0625 17.355469 Z M 19.851562 17.355469 "/>
<path style=" stroke:none;fill-rule:nonzero;fill:rgb(42.352941%,38.823529%,100%);fill-opacity:1;" d="M 12.078125 45.285156 L 12.078125 22.148438 C 12.082031 21.6875 12.609375 21.3125 13.261719 21.308594 L 53.472656 21.308594 C 54.125 21.3125 54.652344 21.6875 54.65625 22.148438 L 54.65625 45.285156 C 54.652344 45.746094 54.125 46.121094 53.472656 46.125 L 13.261719 46.125 C 12.609375 46.121094 12.082031 45.746094 12.078125 45.285156 Z M 12.078125 45.285156 "/>
<path style=" stroke:none;fill-rule:nonzero;fill:rgb(100%,100%,100%);fill-opacity:1;" d="M 28.78125 40.429688 L 49.308594 40.429688 C 49.332031 40.429688 49.359375 40.429688 49.382812 40.425781 L 39.675781 28.492188 C 39.554688 28.34375 39.328125 28.25 39.082031 28.25 C 38.839844 28.25 38.613281 28.34375 38.492188 28.492188 L 31.976562 36.5 L 31.664062 36.882812 Z M 28.78125 40.429688 "/>
<use xlink:href="#surface11" mask="url(#mask2)"/>
<path style=" stroke:none;fill-rule:nonzero;fill:rgb(100%,100%,100%);fill-opacity:1;" d="M 17.351562 40.429688 L 35.105469 40.429688 L 31.664062 36.882812 L 31.417969 36.628906 L 26.933594 32.007812 C 26.640625 31.703125 25.933594 31.6875 25.585938 31.949219 C 25.5625 31.96875 25.542969 31.988281 25.523438 32.007812 Z M 17.351562 40.429688 "/>
<path style=" stroke:none;fill-rule:nonzero;fill:rgb(100%,100%,100%);fill-opacity:1;" d="M 33.773438 29.160156 C 33.773438 30.351562 32.410156 31.320312 30.730469 31.320312 C 29.050781 31.320312 27.691406 30.351562 27.691406 29.160156 C 27.691406 27.96875 29.050781 27.003906 30.730469 27.003906 C 32.410156 27.003906 33.773438 27.96875 33.773438 29.160156 Z M 33.773438 29.160156 "/>
<path style=" stroke:none;fill-rule:nonzero;fill:rgb(24.705882%,23.921569%,33.72549%);fill-opacity:1;" d="M 52.457031 25.625 L 48.742188 25.625 L 48.742188 22.988281 L 52.457031 22.988281 Z M 52.457031 25.625 "/>
</g>
</svg>
